<mxfile host="Electron" modified="2024-08-23T17:30:27.966Z" agent="Mozilla/5.0 (Windows NT 10.0; Win64; x64) AppleWebKit/537.36 (KHTML, like Gecko) draw.io/22.1.2 Chrome/114.0.5735.289 Electron/25.9.4 Safari/537.36" etag="ekQNdhAq5YBK5S1EhKA1" version="22.1.2" type="device">
  <diagram name="Page-1" id="1lEP1IIEI1IEOt1SSv0U">
    <mxGraphModel dx="1134" dy="694" grid="1" gridSize="10" guides="1" tooltips="1" connect="1" arrows="1" fold="1" page="1" pageScale="1" pageWidth="1920" pageHeight="1200" math="0" shadow="0">
      <root>
        <mxCell id="0" />
        <mxCell id="1" parent="0" />
        <mxCell id="akOXsK06G1duExrTISav-4" value="Terrain Elevation" style="shape=cube;whiteSpace=wrap;html=1;boundedLbl=1;backgroundOutline=1;darkOpacity=0.05;darkOpacity2=0.1;size=10;labelBackgroundColor=none;" vertex="1" parent="1">
          <mxGeometry x="785" y="785" width="110" height="30" as="geometry" />
        </mxCell>
        <mxCell id="akOXsK06G1duExrTISav-2" value="Sprite Ref" style="shape=cube;whiteSpace=wrap;html=1;boundedLbl=1;backgroundOutline=1;darkOpacity=0.05;darkOpacity2=0.1;size=10;labelBackgroundColor=none;" vertex="1" parent="1">
          <mxGeometry x="785" y="765" width="110" height="30" as="geometry" />
        </mxCell>
        <mxCell id="akOXsK06G1duExrTISav-5" value="Terrain Visibility" style="shape=cube;whiteSpace=wrap;html=1;boundedLbl=1;backgroundOutline=1;darkOpacity=0.05;darkOpacity2=0.1;size=10;labelBackgroundColor=none;" vertex="1" parent="1">
          <mxGeometry x="685" y="785" width="110" height="30" as="geometry" />
        </mxCell>
        <mxCell id="akOXsK06G1duExrTISav-3" value="Terrain Costs" style="shape=cube;whiteSpace=wrap;html=1;boundedLbl=1;backgroundOutline=1;darkOpacity=0.05;darkOpacity2=0.1;size=10;labelBackgroundColor=none;" vertex="1" parent="1">
          <mxGeometry x="685" y="765" width="110" height="30" as="geometry" />
        </mxCell>
        <mxCell id="akOXsK06G1duExrTISav-27" style="edgeStyle=orthogonalEdgeStyle;rounded=0;orthogonalLoop=1;jettySize=auto;html=1;entryX=0.5;entryY=1;entryDx=0;entryDy=0;labelBackgroundColor=none;fontColor=default;" edge="1" parent="1" source="akOXsK06G1duExrTISav-1" target="akOXsK06G1duExrTISav-26">
          <mxGeometry relative="1" as="geometry">
            <Array as="points">
              <mxPoint x="835" y="721" />
              <mxPoint x="885" y="721" />
            </Array>
          </mxGeometry>
        </mxCell>
        <mxCell id="akOXsK06G1duExrTISav-1" value="Grid" style="shape=cube;whiteSpace=wrap;html=1;boundedLbl=1;backgroundOutline=1;darkOpacity=0.05;darkOpacity2=0.1;size=10;labelBackgroundColor=none;" vertex="1" parent="1">
          <mxGeometry x="685" y="745" width="210" height="30" as="geometry" />
        </mxCell>
        <mxCell id="akOXsK06G1duExrTISav-11" value="Searching" style="shape=cube;whiteSpace=wrap;html=1;boundedLbl=1;backgroundOutline=1;darkOpacity=0.05;darkOpacity2=0.1;size=10;labelBackgroundColor=none;" vertex="1" parent="1">
          <mxGeometry x="1045" y="765" width="110" height="30" as="geometry" />
        </mxCell>
        <mxCell id="akOXsK06G1duExrTISav-13" value="Entity Locations" style="shape=cube;whiteSpace=wrap;html=1;boundedLbl=1;backgroundOutline=1;darkOpacity=0.05;darkOpacity2=0.1;size=10;labelBackgroundColor=none;" vertex="1" parent="1">
          <mxGeometry x="945" y="765" width="110" height="30" as="geometry" />
        </mxCell>
        <mxCell id="akOXsK06G1duExrTISav-14" value="Quad Tree" style="shape=cube;whiteSpace=wrap;html=1;boundedLbl=1;backgroundOutline=1;darkOpacity=0.05;darkOpacity2=0.1;size=10;labelBackgroundColor=none;" vertex="1" parent="1">
          <mxGeometry x="945" y="745" width="210" height="30" as="geometry" />
        </mxCell>
        <mxCell id="akOXsK06G1duExrTISav-15" value="" style="shape=image;verticalLabelPosition=bottom;labelBackgroundColor=none;verticalAlign=top;aspect=fixed;imageAspect=0;image=data:image/jpeg,/9j/4AAQSkZJRgABAQEAAAAAAAD/4QBCRXhpZgAATU0AKgAAAAgAAYdpAAQAAAABAAAAGgAAAAAAAkAAAAMAAAABAAAAAEABAAEAAAABAAAAAAAAAAAAAP/bAEMACwkJBwkJBwkJCQkLCQkJCQkJCwkLCwwLCwsMDRAMEQ4NDgwSGRIlGh0lHRkfHCkpFiU3NTYaKjI+LSkwGTshE//bAEMBBwgICwkLFQsLFSwdGR0sLCwsLCwsLCwsLCwsLCwsLCwsLCwsLCwsLCwsLCwsLCwsLCwsLCwsLCwsLCwsLCwsLP/AABEIAdoB2gMBIgACEQEDEQH/xAAfAAABBQEBAQEBAQAAAAAAAAAAAQIDBAUGBwgJCgv/xAC1EAACAQMDAgQDBQUEBAAAAX0BAgMABBEFEiExQQYTUWEHInEUMoGRoQgjQrHBFVLR8CQzYnKCCQoWFxgZGiUmJygpKjQ1Njc4OTpDREVGR0hJSlNUVVZXWFlaY2RlZmdoaWpzdHV2d3h5eoOEhYaHiImKkpOUlZaXmJmaoqOkpaanqKmqsrO0tba3uLm6wsPExcbHyMnK0tPU1dbX2Nna4eLj5OXm5+jp6vHy8/T19vf4+fr/xAAfAQADAQEBAQEBAQEBAAAAAAAAAQIDBAUGBwgJCgv/xAC1EQACAQIEBAMEBwUEBAABAncAAQIDEQQFITEGEkFRB2FxEyIygQgUQpGhscEJIzNS8BVictEKFiQ04SXxFxgZGiYnKCkqNTY3ODk6Q0RFRkdISUpTVFVWV1hZWmNkZWZnaGlqc3R1dnd4eXqCg4SFhoeIiYqSk5SVlpeYmZqio6Slpqeoqaqys7S1tre4ubrCw8TFxsfIycrS09TV1tfY2dri4+Tl5ufo6ery8/T19vf4+fr/2gAMAwEAAhEDEQA/APXKTJoNFIQZNGTRRQAZNGTRRQAZNGTRRQAZNGTRRQAZNGTRRQAZNGTRRQAZNGTRRQAZNGTRRQAZNGTRRQAZNGTRRQAZNGTRRQAZNGTRRQAZNGTRRQAZNGTRRQAZNGTRRQAZNGTRRQAZNGTRRQAZNGTRRQAZNGTRRQAZNGTRRQAZNGTRRQAZNGTRRQAZNGTRRQAZNGTRRQAZNGTRRQAZNGTRRQAZNGTRRQAZNGTRRQAZNLSUtMYhooNFIQUUUUAFFFFABRRRQAUUUUAFFFFABRRRQAUUUUAFFFFABRRRQAUUUUAFFNZlRSzEAD1qmdRt8kb14oAvUVTF/bn+Nfzpft1v/fT86ALdFVPt1v8A30/Oj7db/wB9PzoAt0VU+3W/99fzo+3W/wDfX86ALdFVPt1v/fX86Pt1v/fX86ALdFVo7y3kbaHXv3qzQAUUUUAFFFFABRRRQAUUUUAFFFFABRRRQAUUUUAFFFFABRRRQAUUUUAFFFFABRRRQAUtJS0AIaKDRQAUUUUAFFFFABRRRQAUUUUAFFFFABRTZHWNGduijJrLbXLJWKkjj3oA1qY0sS/ecD61ly65ZrGzKwzjua4nWPFaRlwrgde9AHbX2sWtuMBxkdcGsd/FFqpwZR+deUah4lmnL7ZM8+tc7LqV67E+YRg8cmmM91Piq1H/AC1H50n/AAldt/z1H514P9vvT/y1ak+3Xv8Az1agD3j/AISu2/56j86hl8WxKpKydAe9eG/brz/nq360fbbw9ZTQB6ZqnjifDqkjY56GuVfxjqG5iGfn3rmGllf7zZqOgDqf+Ey1T+8/50f8Jnqv95vzrluKXigDqP8AhM9V/vN+dH/CZ6r/AHm/OuWopjOp/wCEz1X+8/50f8Jnqv8Aeb865fGelJgigDqf+Ez1X+8/50v/AAmmqf3n/OuVooA7C18a6kkgLO/511+n+NppAoeQ/ia8hBwc1MtzMn3TgUhHu8fiyAgZl/Wpf+Ertf8AnqPzrwb7dedpCPzo+3Xv/PVv1oA95/4Sq1/56j8xVqx8SW00oVpBg+9fPgvr7/nqx/Ordnq97BICXPbuaAPppbu1cBllUg+9SLLE33XBrwy08XyxhQ0np3roNO8ZxmVA0gx9aAPVqKxbTxBY3EaHcu4gd61oZkmXch4pCJKKKKACiiigAooooAKKKKACiiigAooooAKKKKACiiigApaSloAQ0UGigAooooAKKKKACiiigAoyKjlmjhUtI2BXO6p4gtoVYIwGPQ0AdJvT+8v5isbV9bt7AHEi5HXBrzu+8YTI7bJD+BrjdW8Q314zfOxBPqaYzv8AWPHRMTRq/qOPyrgpfFF0ZHYM3JrAaaaQHfuqLaD0oA6X/hJ53TaWbnisS8vZbkkljz1qr5bd6dgUARU8DIppGKUHFADsCkwKWm5OaAHGmYNTrtxk0jlKAIsUgGaViDTc0AO20mKTPvRTGLijFJTlPY0AIDg1oWlstywDd6qbFOP1q1bzeS2QcYpCOns/CltOASRz71of8IVaAZJX86y7LXGiABb071ck8Stjh/1oAraj4Yt7WNmTGcHpXIy28qSMFUnHoK6mfW2nBVmyD71Z0uLT5nBlCnJ5zQBxPlT/APPN/wDvk0bJ+hR/++TXscOn+Hto3LHnHoKDp/h0fwx9fagDx0RXPZH/ACphDg/MCD717Uuh6RcRt5KJnHGAK5TWfCc43mFO5xgUAef8+tOjkeNgyscg+tah8P6qpYGM4HfBqnNYXMBIcY/CgDXsvEU9uEG9uMV6V4Z8ViQRo79eOa8VK4ODV+y1GW0ZShIwe2aAPp+C5hnjV1deQM81KCD0IP0rw7TfF10qqhkOOO9ei+HtcW5CiRvvcdaAOtopAQQCDkHpS0hBRRRQAUUUUAFFFFABRRRQAUUUUAFFFFABS0lLQAhooNFABRRRQAUUVC91ax/flVfrQBNVO5v7e3zuZeOvNYGveJLa1RlglBIHJBHNeYar4uuHZlDnqe9MZ23ibxRGqOkbgYHGDXmN9r005YBzySOtZ11qct2TvY4PqaoEIehoAlkkmkOSxoRiv3uaiAfoKv2mm3lyy7UJGaAIQDJwq/pWjaaTI/LKfauq0bw05ZDNHxxnIrc1GysrCH5doOOaAPPrnTREhOOgNYEnyuR6Gun1O9Vg4U+tcuxLuT70ALjNMIwaeWxxT4raec4QZoAiBPSpFRj0FX00TUGKnyyQfY10eleHLiRk8yM49xQByPkTEcI35VJFYTyEDY35V7Fa+DbZo1LIM49K0YfB9ohBCL+VAHk1n4amuMfIea2U8DysoOxua9XtdBt4MYQce1aq2cKgAAdPSgDxX/hBZf7jflR/wgsv9xvyr2r7JF6D8qX7LF6D8qAPCbnwhLbozbDwK5e8sZLZyCuMGvo+902OWJ8KOR6V5pr/AIekZ3KR569BQB5duYHFIWJ71tT6BqIdsRnHsDUI0HUz/wAsm/I0AZe5/wC8aN7+prU/sHVP+eR/I08aDqX/ADyP5GgDIDuOhNaFrfPDj5sfjUkuj3sS5ZCMe1ZskbxkhhQBt/23KOkh/Omvrc+B+8P5msKigDv9E8TiEAO/510//CW2LphthP0rx5H8voefani6lB6n86APUpNesHDYVOc9hXIaxeQTMxQDv0rnjeS9AT+dRtPI/UmgBrkbjTdpPIoPc0mTQBLE8kTAg4FdVo2vPbFPnwARXIZNKjlTwTQB7hY+OreOJVkZTx39asHx/aDuleG/apB0J/Ok+0y/3j+dAHvdv44tJ2Vcpk10llqcN2oKkc+lfM8F/PE6kE9fWvS/CGr3M0sSMWwcdaAPXaKapyqH1Ufyp1IQUUUUAFFFFABRRRQAUUUUAFLSUtACGig0UAFFFZeq6pFp8TEsN2PyoAXVNUt7CGQsw3YPfpXkPiDxVO8kiwyYzkDBqbxF4gN15gEnUnvXnVxI0krMSTzTGX5NUvp93mOTn1JrNkZnYk0AtnArRtbCefGEP5UAZn4Ves9NuLtlCq3PoOa7LR/CLXRQvH1Peu903wdDalH2DigDgbDwXdyqjFG59u1d/ofhiGzjVpkHA7iust4ILZAu1RgelY2s63Bao6qwBxigCrqd9p9hGwXaCB/KvLPEGutcM6o/H1qfX9YNwX2v1zXFEtK7lieaAGvPI5JJzmo808ROzbVGa1rbQ7iYKSh5x60AZ1rbSXMiqAcZ5xXpHhzwzvMbuh6DqKj0Pw4EaNnTGD3Fel2K2tlCudowKAFt/D9ikaZjXOB2FXY9Ks4zlVA/Cqra3aLx5ij8RSf25Zkf61fzFAGoIkUYFSKAB1rG/tmzP/LUfmKYdZsx/wAtR+YoA3eM9aXmuf8A7atP+eq/mKd/b1sP+Wo/MUAb3NMdiBWZDq9tIceYPzq+ksEy8OD+NAEiHcCDVWWztpGO9QalZvL6dKVTu60AUm0nTG6xr+VA0fSx/wAsl/IVohRxS7BQBn/2Rpf/ADyX8hQdI0vGBGv5CrxUCkAFAHNap4dtp4yIoxnHYVwV74GuXdiqNjPpXs3ygdKgmmt0ViyjgegoA8RfwNdRoWKnj2rndS0eSz3ZGMZr2DXdft7eORVxxn0ryPWNa+2SyLjjJ7UAc9TgBikJySaUUAIcUZpSKTBoAM5pwC0m007FADSBSYNPxQKAI6KkOO9MNMZNawtNMigd69e8IaNJH5Uu3jCmvLNKZVuIyem6vc/C95bmCNcjOBSEdgowqj0AFLSAggEdDS0hBRRRQAUUUUAFFFFABRRRQAUtJS0AIaKDWdqOpR2KOTjIHegB2o6hFZwuxYbsGvI/E3iJp2kVXJ696k8SeJ2lMiK/XdXndxcySyMWYnJzzTGE91NKWJJ5PrVXkn608EscAda29J0eS8kT5CeaADSNIlupIyFJB9q9W0Lw1AkaGRB0GcipvDnhtbdI2ZMcdTXaJbxRJtUdqAK9vp9rbqvlKAR6VcztXJ7VECE3EnisTV9ajtonw4yKAF1nWYbVH+YA7T3FeP8AiLX5biSQI5IJ7GjxF4jkuXdFf1rjt7uxLEknnmgCw08koyx/WkSGSRgEHUjpURbArS0mVRKm/s1AHQ6D4cuLiSOR0JXjtXpC6dpthbKZQoIHOQKzdI1aytrUE7cha53xJ4lEyyJG/YgYoA6SXXdKt8qjJkccEVi6n4oBibyn7Hoa8wluriV2YyNyexoWWYjBYkUAa1z4h1JnbbIw5Pc1X/t7Vf8AnqfzNUCM8mj5R2FAGgNf1X/nqfzNNOu6qf8AlsfzNZ+49l/Smkn+7+lAGl/bmqf89T+Zpf7d1T/nqfzNZeD6H8qcM/3f0pjOmsPEl8hG5z+ZrttH8WAFRI/cdTXkw3AZHFCXE8ZBVyOaQj6Y0/VrS8VcMCSPWtLGeV6V4T4d8QSQNGryfma9b0nWI7qNRuBJAoA2gTxUgao+MA03d2oAlY7ulIAwpFIXJNZ17qsNsG+ZeKAL80hiUk4xXHa5rkcCyAMM4Peq2q+LIwjKrivM9a1eS5Z8PnOaAG61rEtxI4DEgn1rm2ySSeppWkdjkmkyTQAbSaXGKcDt601jmgA3CnBkpYoTIQPWtaPRGkj8wE9M9aAMrcD0pMZqW4tmtyR6VAjetADsU00rNjpTNxoAU9KaMZ5pST6UgBNAEiSGN1Ze1dl4e12aB0DMQBjvXFbcGrEU7w4YHFAH0Zo+twXMcaswyR61vghgCOhr590PxDJC8YZzwR1r1zQ9diuY0VmByBQB09FICGAIOQelLSEFFFFABRRRQAUUUUAFLSUtACd6898c3UkIcKTXoXevOPHowHzg5pjPG7y4aWZixPU5qMRliMck/wBabcf61/rVyx27493OSBQBoaVolzcyIdhI47V6z4c8PxwiNnQAjGcineErC0ktkcoM7QeldjFAiZC8YoAUr5CqEA9KBMf4+BUrbVXLEcetc9rOrw2sbYYA4PegA1nV7e1jfD84ryPX9fknd1VyRk0zxFr8tw0io/qODXImZ3JLnOaAHyfvG3E8moGGDxUjNTQc0AIORUscnknIPNRE80hOaANJdYu1XaCcYqpNcPPksTk1EqhhQRtoAb0p4NR1IAcZoAC2KfFtdwp71CetW7GzmuZkCg4z1xQB1Gj6HFeFcqDnH610T+C4+MRjB9q1fCmjyRCNnBxxXoq20ICgqDgUAeSN4KQLkRj8qw9Q8L3EQYpGePQV7wYICMFBiq8mm2coOUXn2FAHzPc6bfQk5RsfQ1R8qQHBBH1r3rXdEskjdgi9+w9K8i1eCOKZwo6E0AYscjxSKVJGCK9P8IXsztGpJxwK8tXmQf71emeDtoeLp/DQB7AmPJjJ9BTSUHzE8CnKpaCMDrtFUb/zIrdz3xQBV1TVbW2jbDgEA968q8Q+JHZpFjc9fWm+JtTuQ8qhzjkda4R5pJWJc5zQBZm1G4mbJY4+tRDMpHPJqNVVuAOelb+j6JNdSRkA43CgCta6LPcAFUJz7VZm0Ga3UsyY/CvYNA8OxRQoZUGQo6iptb0OCaFljTnBHAoA+fLlNj7ahzXb6p4Ovy7yIrdeOK5y50O9tc+YDx7YoApW7lWB9K6O21ALFtJrmM+WSMU7zn6CgDUvpI5Nx45zWORtPFKzuepNMoAtWcYmlCN3xXcab4XiuowyqDx2FcTp3/HwvHp/OvbvBoiKIHGcjvQB5zq3hqa1JKx4A6cVy0sJgYhuMV9I6xpdvdQthBuIPQV5PrPhG6kkkaNWAycYFAHn7MD0oIJGKuXumXNgxWUHj1GKrgALmgBsRMThhnrXXaHrjwSRgueK48sDTo5mjbIJ4oA+jND1uG6iRWbsO9dGCCMg5FfP+g69JbOm5+MjvXr2h65DdxopYHI9aAOjopAQQCOhpaQgooooAKKKKAClpKWgCpfXYtIjIcdCefavHfGGufa3lG7ua9O8Tsy2TkddrV4BrUztNICerGmMypeWLepq1YbmljA7ECqgG5fcV0Xh3TnnlQ46t6UAex+Dl22aZGPlH8q3Lu/jtQxLAYqjotq1tZqMYO2uS8WXtxCkuCRwelAFvVvFyxB1V+npXnmr+JZbosu885rnrrUbiZ3BY9T3qgSScmgCZ2Mjlic5NMKAc5oVGbpmkKSDrmgBpJoFPwvfrTD14oAcqFjxVtbF2GcGo7QqHG7pmutsIoJVAABPSgDkZI3iOMVGwYjpXcz+HJ7kkxpweeBVN/CGonpG35GgDjtrelOBc4UfSutHhDU/+ebfkadH4P1ENkxnr6UAYtjpb3bJ8vU816T4e8LqvlsU6YNLoHhueEoZE6eor0Ozhit0UcDgCgB9nZR20agAZAq9UXnxetULvVbeAHLDj3oAvSSIvU8VVfUbWFXy44BPNcnqfii1RWCuM/WvPtV8T3TlxG5wc45oA7PxH4hjxIiOOpFeU6leGeVznrmobjU7q4z5jH86plwTk0ANX76/7wr0nweDviP+7XC2dk1zKmwEgkV6p4X0qaLy2IOML2oA9MgOYYz7Cqerf8er/Q1dhG2NB6Cq2opvt3UdSKAPA/FAPny+mSa5ROv4V6J4l0qZ5JWCnv2rz+eCSByrA9aACMhWz7123h3U44GjzjrXCqaswXE0LKQTgUAfRWk6xDMirkcgVvARyLnAINeE6H4hMDJvYgDGcmvRIPGFisKAyDOB3FAHWTWdvIjDYMkVw3iHRldX2x+vSuisvEVrdYCsp/EVoyJBcoTwQaAPnjUdEuY5HKxnqe1Zf9nXw/5ZN+Rr6KOhafKSXRTn2FMPhnSj/wAs0/IUAfPBsb7/AJ5N+Rq7ZaPdzuoaIgHg8V7wfDOk/wDPNPyFTQ+H9MiIKonHsKAPO9I8FjasjJzwfSvQdG0n7EqgDGOla0UFvCNqgAD6VKZEXGMUADkk4I46VXntoCrEqOnp7VNJcRIhYkfnXP3/AIhtod4LgdR1oA828bwIJXKqBzXn5c/druvE2p214zlWB54rhpQNxI9aAGYIpMmgmnKU70ACSOhBUkYNdjoGvPavGC5GMda5AbD0pUkeNwVzx6UAfRWia6l2iJuBJA610w5ANeF+D9XZLmNZGOMjqfevbba4iuIkdGByoyM0AT0UUUhBRRRQAUtJS0Ac94p/48X/AN1q+f8AWR+/f2avoHxR/wAeT/7jV8/a1/r3/wB6mMzoTjNem+BrdJnTIHWvL0Jr1T4eOTIn1/lQB62kSpGEA/hxXIeJNFa6jkwucg12eelMkiSUEMAaAPnbUfDVxDI5Ct17VVtfD88jgFGPPevfbrQrWc5Krz7VHD4cs4iGCrn6UAeaaf4KeRQSh55qW98EvHGSEPHtXrcFrFAAFA49qfNbxzLtIFAHzXqekTWTNlSAKxOe/Wve/EfhyOaN2RASQegry+98N3MRkKxngntQByy5HNbWmaj5Dpk8ZrNuLS4gYhhjnFQBgp9xQB7ToOsWciJv25wOtdcl3phXP7vp7V8722sXVtjYWwPetD/hLNTAwGb86APeRdaZ6R/pThdaZ/0z/SvA/wDhLNV/vH86cPFuqD+JvzoA9yuNUsrcMVK965LUvGMcDkK4GK83k8UX0owzNz71k3F3JcEliefegD0Y+PAcjeOfesjUPFbXCttk61w3FLwf4jQBbur+5ncnzDj61VMkh6nP1pUhkf7orStdIuJivyk5NAGfGrSMAFrQg0iafBCnk+hrsNK8LSPtLR/pXcaX4YhQLvQe+RQBzXhfwwf3buh/GvTbSxjtowAo4A7U62s4rMAIBxVz7woAYnpSSjcCD3p4GOlFAHPalpEdwrfJ1BrzTXfDLAuyoeuele2EKRg1nXemQ3AOVXn2oA+cbjTpbZjlDgVUcnpivbtV8KwurFUGee1cFqPhqaJnKxnigDid0oPBIPtTzPdgD942PY1ZudPu4nPynFVmjkT7360AbWla9PZFdzng9zmuyt/H6RxhS4zjnmvLTjPFJQB6t/wsOMfxUo+IiH+MV5RRQB6ufiHH/epP+FiIP4hXlNFMZ6uPiGh/iFI/j9f74/OvKaPxpCPT5/HIljKh+ua5HUtbmui+2Q856e9c+MetOG31oAmBlfJZic0w5Jx70gWYnCBj9K1tK0y4uJRvU4JFAFS2sJJ/4DyfSrb6HOF3BD+teoaN4ZhKIWUdu1bkvhy22bdq/lQB8/y28sDEMpwPaow3XP4V6j4h8OQwq7hR0JrzW7g8l2HvQBa027MEoYNjBFexeEtZMqxq7ZHA614bGwDDNd14Y1BYXjG7+IUAe7K6uMr0p1Z+lT+fbK2c8CtCkIKKKKAClpKWgDB8TLmyc/7Lfyr5+1wEXD/79exeJdcVrZlDcbTwPpXi2pz+fK7Dn5s0xmeDXqHw6P7xPrXlw5xXqfw9Uq6fWgD2L0+lFA5A+gpaAGMCehpQcCloIoAbvpQ2aTZSgYoAa8ccow4yKzrvSbOWN8IM49BWmSRQGBGDQB5B4j8PAGRkQ9+grzW8tJbaRgykDPpX0vqGmx3KMNoOa881nwmJWYhKAPIOKK7/AP4Qx+f3dH/CFt/zzoA4DinZX0/Wu9/4Qtv+ef8AOk/4Qx/+ef8AOgDgeKXrwK7z/hDH/wCef86fF4NZZB+770AcXBp9xPjaDz7VoReHrt2HDYyO1epaT4UjXbuQdq6ePw5bJtO1eKAPMtL8JTOEyh7dq7bTfC6QbC6fpXW29lDAAFUcVaoAqW1jbQIAEGcelWNqL93GaUt2pAKAE2t607cAMU6mlAaADOaQj0pwUClxQBHhjSEEdakPFNxuHNADcRMMN0qjd6Zazq2FHPtV8pT1GBQBwOpeFY5NxWP8hXD6z4WnjBKofwFe7MqtwRVC60yC5BBUUAfOX9gX+Twfyo/sC/8A7rflXvg8NWoz8q880f8ACNWv91aAPA/7Av8A+63/AHzR/YF//db/AL5r3z/hG7X+6tH/AAjVt/dWgDwP+wL7+63/AHzR/YF96N/3zXvn/CN2391aP+Ebtf7q0AeB/wBg3391v++aBoF73Df98175/wAI1bf3V/Sj/hGbX+6tAHgn9gXvo3/fNOi0C7ZlBDdfSveP+EZtSPur+QoTw1bIchVoA840bwjJKFLIfyrsLHwstuQ2z9K6+0s4rZcKoqwXHTFAFG0tVhUD0qZ1BbFTr9OtJ5eTmgDn9f0/7RA2BztPSvFPEGmSW8jnB4OelfRksayKwI7V5V4xskBlOMdaAPIyCDg1qaTPIk8QBONwqhcqElYD1NTWTiOWMk/xA0xn0X4WYtp0bE84Fb9cD4R1qMW8cJbOQOK7xGDKrDuM1JI6iiigApaSloA8E125mMDDJ6f0rhw24tu7+tdprv8AqW+n9K4gfe/GmMmt4XmkVVHevXvBFk8JjLDHSvP/AA9aLPcIPUivcND09beGJsAcA9KAOgHAH0FLTC2MUoNADqKSloAKSlooAQjNIBilJxWXfanHbBssBigDTLDpUT20MmdwBrj5PFESyEbx19a1LDXUuNo3A5oA2PsFr/cH5Cl+wWv9wfkKljk8xcijle9AEP2C1/uj8qPsFr/cH5CrAJpefWgCt9gtf7g/IUfYLXrtH5CrPNNIOetAEaxIn3cfgKmBPemgYp3SgB1FJS0AJtFFLSUAFLRSUALRRSUAHWjAFLSUAFFFLQAlLRSUALRSUtABRRSUALRRSUAGaM0hpAaAHZpaYW5pQaAFNNwKCw/lSb6AHClpgYmgtigB/rXnvjC1llEpUZ613+7g1k6paLLBMxGcA0AfOOoW00U77h1JqnllI9R0rrPEsYiuJAFxhj0rlN3zE0Adj4UvZxdQpk4yB1r3u0yba3J6lAa+btCvBb3kTEjhhXumleILaW2gUldwVR1oA6SioYJ1mUMMdO1TUhBS0lLQB4Brv+pb6f0riO/4122uHMLfT+lcT3/GmM6bwvKwvIx/tD+de+aczG2i+gr5/wDC3/H9F/vD+dfQOnYW2h+goAvU4U08mnAdKAFooooAWiiigCKdtqE+xrzDxZqjQGQBjXpl1ny2/wB014r45Z1lk69aAOSm1edpCQTjNdf4a1R98Ydj1rzxSCc4re0u78p48cYNAH0HpcwliXBzlQa0TXCeHNaQrGhYZwB1ruI2EsYYHqKAFp2KQLjvS96ADpSZpHziowTmgCUf40tIOgpaACikooAWikooAWikooAWikozQA6kpBmjNADqKbk0oNABRRSbhQAtFIKCcUALS0zeKd1oAWkpaMUAMY8U1QeetNkbbnJFQm9ijVssvHNAE5YA808OnrXI6p4lgtmb5l4PrWH/AMJ5aq20uvHvQB6WSlNylecf8J9Z/wB9fzFH/CfWf99fzFAHpAKUpKeorzf/AIT6z/56L+dIfHtn/fX8xQB6RuSoboK0EijuDXnZ8e2gI+dfzrd0zxPbX+1Qy/Nx1FAHCeKdKmaSRwvUntXnk1tLE7Ajoa+jtQ02C+gLAAkg9h6V5P4i0b7K0jbfXtQBw0chibI6iuo0bXJ0ZFLNjIFcrKpVyKntpvJKn3oA+ifDV8txANzfMVro68h8Kau37tA3p0Ner2shkhRz3FAE9LSUtIR8/wCuD9y30/pXE9/xNdtrn+pb6f0rilGWP40xnReFT/p0X+8K+gLDH2aH/dFfPnhphHexk9mFe+aVcJLbxKMZwKANZeKdTc4pc0AOopKKAFooooAimAKH6GvKfGmmvO0jKuea9XkBIwKw9R0tblH3LzzQB86XFtLCxUrjBpkcrRkckYr0LX9AMZdlT17V59cwNC7hgRigDZ0vXJbeeP5jjIr1PS/FaCFA0nYZzXhinByO1W01G7jACsQB7mgD6ATxPA2P3g/OrtvrFvKw/eDt3r53XWdQUj5zx7mtbT/Ed4jjc7fnQB9EJNDIvDA0/YK8w0fxRnYHf06mu2tNes5VXcw6etAG0BilxVL+1LLGd/6im/2tY/3v1oAv4oxVH+1bH++PzFH9q2P98fmKAL2KKo/2rY/3x+Yo/tWx/vj8xQBexRiqP9q2P98fmKP7Vsf74/MUAXsUYqj/AGrY/wB8fmKP7Vsf74/MUAXsUYqj/atj/fH5ij+1bH++PzFAF6jFUf7Vsf74/MUf2rY/3x+YoAvU0KAc1U/tOy/vj8xVW61q0iU4YfnQBqtJGvBYCjzIj/EPzrz/AFHxVDGxw4/Osz/hMUH/AC0/8eoA9RJh67h+dQyXlvEpy4rzX/hMo8H9529azL3xW0itsk/WgD0mXXrdCQZFqpJ4mtwD+9FeK3uv3jM21m6+prP/ALY1A5zIefc0Aes6n4vEauUk9elcdceOLli4DNjpXHyX1xKCHYnPvUSiM5znNAGpfa1Pek7nbmshs5yWzn3pxjy2Eqwmn3T/AHVJ/CgCnz6mjJ9TWh/ZN9/d/Q0n9lX/APcP5GmMoZPqaXJ9T+dXf7Kv/wC5+hoOmXYGSMfgaAKOT6n862dH1eawlj+Y4yKzJLaWPqKjXhgfQ0Ae8eH/ABEt1FGhbJIAqHxRai5iZlXOVJrz3wrfSC6jTJxkfzr154o57MFwPuUhHgepWphlIIxzWc4xgV1niqJIrmQKMDdXJuckUAdd4UdhLFyeor3jTDmzh+leB+GnWKaLPqOte76PPFLZxBSMqBQBpUtJS0hHgOuo4hbg9P6VxCnBOa9o8R6Jtt3wv8P9K8jvrbyJJAeME0xi6fceTMrZxyK9f8K6wHWNS3tXiiEKc11egam0DxgMeooA9/SQSgEHtTwcGsTQLk3MKknPArf2jFAAvNOpoGKdQAUUUUAJSEKRg0NmoixBoAx9X02O4jbC5ODXlWveHmDSFUP5V7gVDjBxWJqWkxzK/wAq9DQB863Fo9uSCCMGqwfHGPavRPEGgyAyeWnOSeK4aTSr9XKiMnk+tAFNsGlAZeQas/2XqH/PI/kaa9jexjLIQKAHwXs0OPmP51sW/iKaIAGTp7mubKFThuKbxQB2X/CWygff/nTf+Etl/vn9a4+igDrz4tm/vn9aP+Etm/vn9a5CimM6/wD4S2X++f1o/wCEtm/vn9a5CikI6/8A4S2X++f1o/4S2b++f1rkKKAOv/4S2b++f1o/4SyX++f1rkKKAOv/AOEsl/vn9aUeLJf7/wCprj6OKYzsD4rm/v8A6mlXxbL/AHz+Zrj+PWkpCO0/4S+Xp5h/WoJ/E0syn95+tclRQBeu76edifMOD6Gqm+U/xN+dLHDLKcIuc1bGl6gRuEZ/WgCmTL3ZvzoDyf3j+Jq0dN1H/nkx/Ok/s2//AOeR/WgCrlj704buy/kK07TR7yRhujPbsa6vT/CzTAbkoA4D5z/CfyqzbWk0xUbDyfSvUI/BcZ5MY/KtSz8IwxlTsHX0oA4PS/DckzqzIe3au8sPCqbF3R9hXVWWiwW6g7V49q00UR8KBxQByv8Awi0X/PP9KX/hF4B/AK6xpCqEntXM6rr62wYBgCM0AQjwtakHhf0rK1Pw/bQI5G3is6bxpJGWAc98c1hah4vuLhWG480AYmsxRxO6jHGRXNluTV67vZLh2Zu9UdpZsDvQB0PhUE3qemR/OvcI1P2If7n9K8a8K2k4ukbbxkfzr3GzhL2qhh/DQB4x4uhY3DnB+9XEtlW+lew+K9LU+Y+B3rye8i8uZwOxIoAsafeGKaLtyK9m8K37SxxLu/hHevCof9bH/vCvXvBrHEX0FAHqY6D6CnU1fur9BTqAMrWrZbi2YYyxBH6V4d4m0topJCAR81fQborgq3Q15f44sxEZCq0AeOsjIcGr2nMyyx4PcVXuifMIPqaSKUxOjemDQB9AeD3zapkj7o/lXWg5zXkPhPXiixxbuwFeqWsvmxK45zg0AWqWmqxxURkOSKAJ6Wo0JOKkoAQkDrUZ56U8jNAXFAAMgUjKGBz3p9JQBk3emQ3G7Kg59qym8M2rMT5Y/KusooA5T/hGbTH+rH5Vk6n4ViaNvLjGcHsK9BprKrDBANAHg914Lund9itjntVX/hCL7+6/5GvezaQ5+4KPskH9xaAPBf8AhCL7+6/5Uw+CNQ7B/wAq99+yQf3F/Kj7JB/cX8qAPAf+EJ1H0k/Kj/hCNR9JPyr377JB/cX8qPskH9xfyoA8B/4QjUfST8qX/hCNQ9JPyr337JB/cX8qPskH9xfyoA8C/wCEI1H0f8qP+EI1H0f8q99+yQ/3F/Kj7JD/AHF/KgDwH/hCNR9H/Kj/AIQnUfR/yr377JB/cX8hR9kg/uL+VAHgP/CE6j6P+Ro/4QnUfR/yNe/fZIf7i/lR9kh/uD8qAPAh4I1D0f8AKn/8IRff3X/KvevskH9xfyFJ9kg/55r+QoA8DPgjUOwf8qQeCdRyMh/fivfvskH9xfyo+yQf3F/IUAeS6P4PkjKeYh69xXaweGrYRjMY6eldOlvEnIUflU/FAHJr4as+f3S/lQ3hm07RD8hXWUUAcpH4bt0IxGOvpWva6bbwgZUce1alIaAIhDAOAop4jjHQUY5NOFADWO0YFRouW5pz9aqXNyLdWJOOKAGancrDBLyBhTXinibVZDPKqv3PQ11viPxDhZED+teTahdNczu2cjJoAheed2JLHmm+ZJ3Jpoz271PHbzSnAUmgCMHfwBzWzpeky3UkZ2nkjtUunaJPKy5jPUdq9P8AD2grGIyyelAEnh7w+IVjYpzgdq7uGMJGFx2xSQQpEgUAdBUp6GgDkfE8Km3lbHY14TqX/H1KP9o/zr3vxKT9lmA54P8AKvAtS3C8lzn7zfzoAqRjEqf7wr1vwYwJiGRnAryLOG3ehzXZeGNaa3mjXJ4K0AfQK/dX6CnVk6TqIvYo+cnA5rWoAQ1xXi+zNwkhAzxXamqN/ZJcxSZHOKAPmrVLV4Z2yOMms0nJr0PxXpXlPKwX+92rz4qQ5X0NAG3oN6ILiIMeAQK920C/int4lyM4WvnCFzHKjA4w1eqeD9UJaJWfuO9AHrL8YxSAL1NRpKsqIQc8DNSBDQA9cdqU0irikJoAdS0gooAKKWigAopKKACloooAKKKKACikpaACiikoAWiiigAooopCCiiimMKKKKACikpaQgopKWmMKKKSgBaKKKACkpaSgBDxRmkbvTV70ADda5vxJM0MDkH+E/yrpiO9cl4vOLZ/90/yoA8X1y9llldcnlvWsLkmr2pkmdvqarW673x9KYy5ZWElwyADg16BovhxXClk9O1R+FdJExjJXPIr1Oz06O3RTtHA9KQjL0/w/bRqpKDt2reito4AAg6VIrKvAGKfjdQAzeacCcGkKYoBxQBia1bPNBIMdQa8U8Qaa0Msr47sa+hLlFkhIx2/pXk3jO3VEkYLz81AHlVaOkvsuB9RWeerfU1Nay+VIG9xTGe++EJDJGn0/pXZ15Z4L1hVCgkHoK9C/tWD2/OkI0DSHofoaU0UhHC+K9MaWGRwvY14rfWjwzyZGOa+mr20S7heMgZIOM1414z0Y6eZJNvByelMZ55tAyfSt3w/qD286fMR8wrC3ZDUsExhkDj2oA+jfDt8lzCm5udveuiJ9OteS+D9WLiJd3b1r1S2YyRhyc5FAEoJ70uBSDBpCDmgBwpaQUtAC0lFLQAUlFLQAlLSUUAFFLRQAlLRRQAUlFFABRS0UAJRS0UAJRRS0AFFFFABRSUtABSUtFACUUtJQAUtFFACUUtJQAEU3FBYUm4etAD8VyHjH/j2f/dNdeOa5PxiP9Fc/wCwf5UAeCal/r3+tMsceZ+Ip+o/65/96orM4k/KgD2fwQARH36V6K3SvN/Azf6sc9q9IbpQBAV5P86kTgU3vzRn0oAk603aOtKOlLQAjjKEVwHi7T2mikwOxr0DPIFZGtW8ckLEgcqaAPm+/tWtpWGMDNUq63xTFHFM4AxzXJnoKAO88FsWIHvXo1ebeCPv/jXpXFAHZGig0UhBXH+NdOF/bEbQSErsKo6hbG4icD+6aAPmjUbFrKVkxj5sVQYdPcV6B4r0lklkbb0YmuDnG1tvpTGbvhy/NrMg3Y+bFe56HqKz2yDcM7RXzfbyGOVGHrXqvhTV9ojRm9O9AHq6dM+tBJyagguY5Yl2kZI9asAZoAcKWkooAWikooAWikooAWikpaACiikoAWkpaSgAooooAWiikoAKWkooAWiikoAWkpaKACiikoAWiikoAWiikoAWikpaACkNLSUAQnOaQVMQKiIIoAlXoK5Pxkx+yuP9k/yrqVzxXK+MB/oz5/umgDwXUCTM31NRWn+s/L+dT6muJnP+0ahtP9Z+VAHsXgb/AJZ/gK9KNeaeBgf3f4V6WelADNvtRtFA6080AIKKKa3FACD7wqjq5xAT/smri8sPrVTVhmBv900AeD+LWJnb/erlOw+tdb4vUCd/97+tcjQB3Xgn7w+tek5rzXwUeR9a9Jz9P1oA7Q0UGikIKKKKAOH8V6esqSuE9egrxHU7d4riT5T1Pavpq+tI7mGRSBkg15J4l8OSK8ronr0pjPMl659K2NL1V7aVRnGCKz7q1mt3YMMAGq4yMN6GgD23w/ryyLGrOO3eu7trlZlBB6gGvnPSdUkt3jG4jBHevY/DWprPFHub+EUAdkGzT6ZHtKgjvT6ACikooAWkoooAWiiigAopKWgBKWiigAopKWgApKWkoAKWikoAWiiigAooooAKKKKAEpaKSgBaKKKACikpaACiiigBpOKZ96nt0pi96AHgBRz+tcZ4yuEFu4B6Ke9dNfXXlRsfavLPFmqeYJE3etAHnN84aSQ+9QWrYlHvimyMXd/cmpbOMtIPwoA9i8CnIj49K9JPSvOfA6bQn4V6I+eKAEXr+VSVCuamoATFNIzTqSgCMDBH1qhrMqpA3I+6e9XZ3CKW9q4jxHqu1JF3diKAPM/FkokmfB/i/rXKVq6xcmeZjnuay8E0xnb+Cxhh9a9I/wA9a868GI+4cdxXo+x6QjtDRQaKQgooooAKpXthBdxsrINxBq7RQB4v4s0NbdpCqdyeleczAK5THfvX0T4k037ZFIwXPFeI61phtrhjjGCaYzDXMbKR613vhjVTG0aFsdO9cDI3OPSr+lXZhnQk4GRQB9JadOJYEOewq8a4nw3q8csUaFxk4HWu1VkZQQRyPWgBaKZnmnZFAC0tJkUUALRSUtABSUtFACUtFFABRSUUALRRRQAUUmaQsBQAFgOtJuFMaSPuaUNB/eH50ASZozTBJGTwRTsjtQA6iow3OKfQAtFJmkzQA6ikyKKAFooooAKQ0UhoAKRh8rH0FN3EU7cNjk8YBzQBx/iHURBFIueRmvG9ZvmnmkG7PJrvvGU4DygN3NeU3DlpmOe5oAhBwT+Nbmh2huZ1ABOSKxo0MkiqB9416X4R0dw8UhT+6elAHdeHdOa0jiYjsP5V1nXFQQRKkMYxjAFTj/CgBpwKM0EUoGKAGlqE70FacBgGgDJ1abyoXbPTNeNeI9VMkkiA9CRXq3iOTFrLg9jXgmryMbuXJP3j/OgDPcs5Zj7mpbRRJIseOpFQrkkr68VvaFpjzXKNtOMigD0HwfpJwhx1x29q9A/stvVao+HbQ20UeVxwP5V0dACGig0UhBRRRQAUUUUAMljWSN1YDBU15F4w007pXUf3u1ewda5rxFpiS20jgZ4OaYz5zljdJHBHQ01SyHcO1bOuWzQTy4Tue1Yyk80AdV4e1uW3lQOxAyO9etaVriXKxgMDkDvXz4sjoQVOO/Fdp4b1R43iVn9OtAHvETCRAQfxoJIrP0e6SaBTuHQYrSdAwoAaGJNSZ4FV87Tipgc0AOp1NpaAFopKWgAooooAKKSloASlpKKAGvnrVC8vo4EO44xk1fkbCMfavP8AxPeSxrJtJHB6UAF/4ohhZhvAxnvWWPGcef8AWfrXmWpXlxLM4LMBk1ngyHoW/M0Ae42PiqCcqN/OfWuz0+7FwgIOcivmjT72a2kDbmwCO9el6F4tEQjVnHTByaAPWNhzninYNc7aeJIJwPnXtWxBdrOBgg5oAs5pRSFe9NWTJxQArA5pwziloyKAAUhOKXIphBJzQA8UhNJnFIfmxQAjYANYmp6tHaJJk44PetK8lEUZJYDivJ/F+qMPMCv2NAGR4l1VLl5CpzknpXEOdzMfU1JLPJMSWJ602OJnI4zmgDQ0iJHuYd3dhX0B4bsrZLKJwBnaOlePaBo7zSxSBTgEHpXtmjRmG1SPphQMH6UAagIxgdqdTVXFPoASilppOKACmyOFVvpSk1g6vqQtUfnHBoAy/El3H9nlUnnB714bqbB7qUj+8f512XiDXfN8xQ3Ukda4KWQySM3qaAH2+PNUHua9S8IWsEjxkgdq8shVmmTAz81eueDo3HlEg9BQB6hFGkaKqgAACpaav3V+gp1ACGig0UhBRRRQAUUUUAFV7uLzoHTGcg1YooA821bwqtyZW2A9e1ecaxo4sGdduME19HFIyCCowevFeY+MtGMzyPGpxkngUxnjbfeIq9Y3JhljIPcVHfWkltKwIOM+lVFJBBHagD2Xw5rqhI1LdgOteh2d7HcIuDzivm/TtTlgcDcQMjvXp3hzXsiMM4/OgD0aUZbinID3qC1uEuQGyDmruBQAlLSUtAC0UmaKAFopKWgAooooAKSlpKAGS/cI9RXI67pZuI2wuc5rrZDULLE33gCKAPA9V8PTo7kIep7Gubms7iAkFTjmvoy+0q1uVbagPGOlcJrnhtVSQrH+lAHlMYBb5jzVgzmAjYTx6VJf2EttI/ytwfes/ce/NAHSaVrs8ciqzHAIHWvUdC122ZU3uPzrwwFh8y8Vfs9Uurdlw5GPegD6Wh1GzlUYcdKlBU8rXi+j+JJd6B5PTvXpui6ml0qjcM4HegDey1Jlql446UYFADFz39qeKY5CjORVOa/jgBJYcdeaALrg0xnEaEntzXO3Piyzt9wZl49xWJfeN7R4pFVlzg9xQBe8Qa1DFG6hucHvXjeuX7XUj4bPJ/KrGt67LdyvsYkEnvXPeYzMS3egBqgYOa2dDtTdTKpHG4VmwW7TOFUdfY16F4V0N0kjcqeoNAHdeHNGjijRio6ZrrEiWPgVBYwiKNR7VYOd1AElFIKKAFpCAetFB6UARXEiRRkscV5h4u1SPEgVux712niCdordyG6A98V4hr17LLLICxPJoAxbuczMTnjNVdpOMDNLvyDmr+mWxuJUXGRkDp70Aa2haRLdOjFc8+leveH9La2RCVxgCqXhTR41jjZk6Adq7qOKONdqgUAOHQfSnUlLQAhooNFIQUUUUAFFFFABRRRQAVQvrCO6RgQCTV+igDyHxR4a2iR0j7E8V5hc2k1s7KyMAD1r6gvrCG8RgwGcEV5j4k8NxJ5jKg79BTGeSg4INbem6k1s8fzHqO9Ur6yeCQgDjJqmGKnvkUAe0+HfECN5aM/YdTXoVvcRzRqwYHIFfNGnarNbTIdxAyK9Z8NeI0lEaO2egOTQB6LQahhuYpVUqeoqXIJxQAUvFNfpxUeWoAnoqIEjrmnA5oAfRTaKAFopKWgBrKDUWzJxVikxQBFsCDpVS5s0uVKlRzWhiigDhdS8Gw3O9toyQTXnmteEmsy7Ih454Fe+4B61jarpcNzG+VBLZoA+aZo5YXZGBGCRUNena14QlaRnjj7nHFcbe6Bd2xbKkfgaAMqC4khcEMeK6vSvFMtltwx4xXJPC8f3v5UxWAzQB6a3xEnAA3Hik/4WPP8A3zXmbHJptAHpbfEOdwcsaoXPjOaZCN55rg6UGgDUvNXuLhmO5uc1nedKc5c8+9NAU/WnrBI5AUZzQBHyfepI4ZJGUBTyRWtYaJdXBGFPJ9DXZaX4RlBiZ04yOooAp+HNBeUxu0fXHavV9N0uO3iQ7QCAKNH0m3tIVyoDADtWwuFyB0oAcnAFOphanAjFAC0uaTIqNmxz2oAlyKp3l7DbxuS4BANV73UobdGJIBAPfpXmXiTxI/7xY3/I0AWPE3iJWEkayeo9a8vubhriRye5P0pbu+nuZGLE4ye9VV5P1oAETe4Wu78LaUZJIzt7j+dcpYadcTzIQDjIPT1r2HwlpZi8suPSgDsdLtvs8KrtxkVo0gAAwOgpaQgpaSloAQ0UGigAooooAKKKKACiiigAooooAKztR06O7jYYGT2rRooA8j8QeGSgdwnqeleZ39o9vI4IIwa+ltVtEuLd+BnBrxbxRpwieQ4A60xnDhGI3CtPStUls5VO44yO9ZxcLlffHFM255B96APaNA8SiURqZB0Heu+s7iOdQ28cj1r5w07UHtWX5jgV32j+KtuxWfjjvQB69xSHiubsdegmVcuO3etyK7hlAwaAJWOaVO9KQpGRTASKAJP/AK1FHamswFADhS5qINzxTx2oAdS00UUAOpKKKAEJxTSA3UU4jNJigCKWK3cEFFJ+lc9qXh+G8DbYxyD2roz1zQGI6UAeR6r4LZQ7BD17CuPuPDk8bkBG7+tfQ80CTqQwFZj+H7WRtxVeaAPA/wCwLn+6360f8I/c/wB1q97/AOEbsf7q/lR/wjdj/dX8qAPBP7Auf7r/AK0f2Dcf3H/Wve/+Ebsf7q0f8I1Y/wB1fyoA8MtfD07sMo35Gup07woWKkofyr02Pw9ZxnKqtX4tPhi6BaAOY0vQIrbaxjHGOorqoUt1UAIuR7ClZCAQBTUBBoAkO3PHFKEqNiQadGzH2oARuKUcilcZpOnWgA5qK5cJCzH0qQzQoDuNYOsatbJC6hxmgDjPE+rsnmgP6jrXmF3dyXLsS2a6DxDerNJJhuMnpXKL1oAQ5qxaRPLLGu0kFgOlT2Vr9pcKOSa7zSPDLMYX8vuD0oA6Hwr4ajlt45nXsDyK7u0sY7YAKBximaRbG1tViIxjFaNABRRRSEFLSUtACGig0UAFFFFABRRRQAUUUUAFFFFABRRRQAyRN6FfWuH8Q+GJdQ3lFPPoK7uigDwXUfh9qdtFJcgMFXJPFcO6tDJJGw5RipB68V9XTxJPFJC4yrqVOfevIfGfgaO0jlv7RSS25iF9fpTGeXknqKfFcTxsCrGm/Z7rJBhl44PynigKQMNwfegDodP12eEplzwfWu30vxUoCBn/ADNeRncvrU0V1NEeGNAH0PY+I4LgKAy5PvXQW8qTKGBH4V84afr9xbuuWPWu50zxoyKoL9qAPWyRnGRUboe1cJZ+LEmmG6Tg12VnqVpOgPmLk+poAsqh/wD11JTfOt+nmL+BqQFTyCDQAlLTelOHSgBKUUlLQAGkNLQaAIj1o2mnbaUkigBnSnBuKNu4Zo20AOB96XNNAp2KADJozRikoAWlpKM0AIcd6blR2FONJsoAjIzzSoBmpMKBULz28e4s4B+tAEjLxnNZ+oXcdtEWJHQ96wdZ8SRWm4JIOPSuH1fxY00bKH7EUAbOp+KVjMihx371w+peIZrgsA5wfesC7vJJ3Y7jzmqXJ9aALNxLJMSSarqpLAY705UnbAVWPPpXS6JodzdyxbojyR2oAueFdMaW4jJUkZHb3r3DT9Pgt4YvlG7aKyNA8OQWUUUjKA2BgV1A4AHpQAgAHAGKWiikIKKKKAClpKWgBDRQaKACiiigAooooAKKKKACiiigAooooAKKKKACobm2gu4zFMu5D2NTUUAYcnhfQmilRbZAzKcNgda8b8QeD9Ri1CZoIz5BY4+U8DPavoCoZ7eGdGV0U5HBwM0xnzfLoVyBjacgelZU9hPATkfmK+hpPDcLlzsHOccCuW1jwoPmKx/kKAPGOQfpTxNKv3WIrqNS8OywFj5Zxz2rnZrWWInKHj2oAlt9RuoiCGPHfNb1r4pvodo8xgPrXKZYcUhJ96APUNP8Wysy75D+ddrp/iqzZV3uD9SK+f4pZUPDHFXotQuI8YkP50AfRK69Yy4CsOfetGG5jlUFa+e7PX543QmQ8eprsLLxl5Ma5foB1NAHrWfpSbhnHFeZHx8mMbx+dSW3jZJpQN45PrQB6XS1iadq8FyikyLyB3rV8+3/AOei/mKAJqTAqH7Rb/8APRfzFH2i3/56r+YoAnpKi8+D/nov5ijz4P8Anov5igCaioftEH/PRfzFL9ot/wDnov50ASUVEZ7f/nov50w3MA/5aL+YoAsUhxUK3Nuf+Wi/nVS91GCBGYSLwD3oA0agnuo4Bl8VwF345jt52j3LwSBzWPqXjP7QhCuOR2NAHoN74hsoYn+YA49RXn2reLvncJIe44IrjNQ12eYsA5596wJJZJGLMxOT60Aa+pa1c3Tt8x6+tZLTSOMMSfxqMAk8DNXbeylmIxGfyoApqCxArX07TTO65HX61s6d4ZlmZCUPOO1ehaP4PEYR2XHA60AY2j+FoZAhZAc47V6BpmhWVmit5Y3AccVes7CK1UDAyKu0AIAAAB0HSloopCCiiigAooooAKWkpaAENFBooAKKKKACiiigAooooAKKKKACiiigAooooAKKKKACiiigAqOWGOUYYVJRQBhajoVrcIxCjJB7Vw+oeEgRIVjz+Feq1GYYW6oD+FMZ893nhW+WQ7IjjJ7GqbeHNQUfNG34ivow2dkeTBGfqBVe50qwmRh5KA47AUAfN02mXEP3lIxWfJGynmvc9W8KCUMyJxyeBXnmr+GpoS2EPfsaAOMUgVP55Axk1LJp08ZIIbj2qL7JN2VvyoAj8xiepqaC5khYNk5FLHayDllb8qbIhU/dNAG3b+Kb22ACM3FXR441HH32rkGBHamUAdgfG+pf3no/4TfUv7z1x9FMZ2H/AAnGp/3no/4TjU/7z1x9FAHYf8Jxqf8Aef8AOj/hONT/ALz1x9FAHYf8Jxqf956afG2pH+J65GigDrv+E21MdGaq8/i7Up1KszYNc1ShgP4RSEWZ7l5mMjE5PNRCQtxk1LDA03CqefarDabKvO0/kaAK+2JhknmojC7H5BnNXoNMuJXChW646Guy0jwlNNsJQ847ZoA5zR9EnuZI9yZBPpXquieErby0aRB0B5FaekeG47QIXT9K6iONI1CqMACgDPg0WxgA2KMj2rRVQihR0FOopCCiiigAooooAKKKKACiiigApaSloAQ0UGigAooooAKKKKACiiigAooooAKKKKACiiigAooooAKKKKACiiigAooooAKKKKAAgEEHoaybzRra73bgOeta1FAHHy+CrKQkkLyai/4QSw/2a7WigDij4EsCD92ud1XwUkJJRMj2r1eo5IYpfvrmmM8EuPDU4JAiP5VT/wCEYuCf9Wfyr31tLsG5MY/IUn9k6d/zyH5UAeCf8Itcf88zTD4YuR/yzP5V7/8A2Vp//PIUn9k6d/zyH5CgDwD/AIRm5/55t+VH/CM3P/PNvyr3/wDsnTv+eQ/Sj+ydO/55D9KAPA18M3I/5ZH8qd/wjVz/AM8T+Ve9f2Tp3/PIfkKP7J07/nkP0oA8F/4Rq5/55H8qafDVz/zyb8q98/snTv8AnkKP7J07/nkKAPAP+EYuv+eTU6PwtcF1zG2M177/AGRpv/PIUDSdOByIh+lAHmGieEtzIHQ9utdg3gyxZVBC5711EVtBD9xQKmpCOTh8HWULBgFroLSxitVCqo4HarlFABRRRQAUUUUAFFFFABRRRQAUUUUAFFFFABS0lLQAhopaKYxKKWikISilooASilooASilooASilooASilooASilooASilooASilooASilooASilooASilooASilooASilooASilooASilooASilooASilooASilooASilooASilooASilooASilooASilooASilooASilooASilooASilooASlopKYz//2Q==;" vertex="1" parent="1">
          <mxGeometry x="1110" y="475" width="30" height="30" as="geometry" />
        </mxCell>
        <mxCell id="akOXsK06G1duExrTISav-16" value="" style="shape=image;verticalLabelPosition=bottom;labelBackgroundColor=none;verticalAlign=top;aspect=fixed;imageAspect=0;image=data:image/jpeg,/9j/4AAQSkZJRgABAQAAAQABAAD/2wBDAAIBAQEBAQIBAQECAgICAgQDAgICAgUEBAMEBgUGBgYFBgYGBwkIBgcJBwYGCAsICQoKCgoKBggLDAsKDAkKCgr/2wBDAQICAgICAgUDAwUKBwYHCgoKCgoKCgoKCgoKCgoKCgoKCgoKCgoKCgoKCgoKCgoKCgoKCgoKCgoKCgoKCgoKCgr/wAARCABwAMgDASIAAhEBAxEB/8QAHwAAAQUBAQEBAQEAAAAAAAAAAAECAwQFBgcICQoL/8QAtRAAAgEDAwIEAwUFBAQAAAF9AQIDAAQRBRIhMUEGE1FhByJxFDKBkaEII0KxwRVS0fAkM2JyggkKFhcYGRolJicoKSo0NTY3ODk6Q0RFRkdISUpTVFVWV1hZWmNkZWZnaGlqc3R1dnd4eXqDhIWGh4iJipKTlJWWl5iZmqKjpKWmp6ipqrKztLW2t7i5usLDxMXGx8jJytLT1NXW19jZ2uHi4+Tl5ufo6erx8vP09fb3+Pn6/8QAHwEAAwEBAQEBAQEBAQAAAAAAAAECAwQFBgcICQoL/8QAtREAAgECBAQDBAcFBAQAAQJ3AAECAxEEBSExBhJBUQdhcRMiMoEIFEKRobHBCSMzUvAVYnLRChYkNOEl8RcYGRomJygpKjU2Nzg5OkNERUZHSElKU1RVVldYWVpjZGVmZ2hpanN0dXZ3eHl6goOEhYaHiImKkpOUlZaXmJmaoqOkpaanqKmqsrO0tba3uLm6wsPExcbHyMnK0tPU1dbX2Nna4uPk5ebn6Onq8vP09fb3+Pn6/9oADAMBAAIRAxEAPwD9047jPNSpO27I4qhHIyN0qyk4Az2rtaOdO5owX2fvk5HSpJdTIYZ/HFZQudrZqZJklXrWbgUmeCf8FTf2j/H37OH7HHiPWfhXbau3inxRbXPh3wxeaFpV5eXmn6lc2Vwbe4gitIJnedXi2wo6pE07wrLNAhaQfz3aT8XPg98YPhL41+KVvpHxD+DMEyX/AILn0X4cfFtINIvJtY0W5k0y3u01f/ShpTxaHp8EtvNevbTRxzvALMRJbTf0eftwfA+D9pf9mXWvglJHpEv9qXmn3iQeItA/tTTbh9PvIdTS3vLYyRJLbTNZLDIHmgBSYgSo5TP8ql7+zd8X/wBqnxj4k13wV4P8MXfiVNafS7zTrPxnc6mv2rTILKC+uTqE0s1tIl3dXMZhma9CyyO8FuHMtsrefiVJVF2Mqt+ZHpf/AASi+MWm+FNV1fxn4z8VRaL8ONA8Uafd+MvDOl+G5tk9oYLy/t9QluoEN3ff2XqOlWF4lp/pU0cEF9dRRSwQX5Hr3/BWP9uLwR8d9Y+G/gf9mj9q34lan8LtN+DOit8RvDet/ELVtQsJtYlvLnUvs95Ddzyre3cRkiDsZZo4vJihRk+y7V8u+Dv7JsOif8E6fEv7U9z4ygn8UfD7x9p1j4dj8TXFlJavqiXmmXVnDYWrmeLVbR4rzxJLKWBhuFhSdS0cUscvlN58I9Bk8AJ8Pra7fH2iMpeJpv2eWWIESHdvHDY29iQAinO0FuetUUKap3tf8EdOFpObvbY8Y+N3xg8ReLZofAngRABfmO3tLezH72dWULj5QBxgL6Z3HnGa7b4W/C34P/AOwgm+IWr2Nx4jvYgRO7bvsxOAPKUcoAdw8xhhuemMDW0T4L+BfhT4hg8XXkt3qWoOViju72bcLWMLtVYwR8uQBzjIHyjAJB4n4p2HgP7dqmuweITqGpFUeWK7u0i8tQApJMaAZ6DHAA7ZrBSpcqhC6X4tneoTiuaW/wCR6Pp3xc+FuuasvhTw94gMU9yrEXotSqZ3Z25lIJLZOBgjJ7dKw/iXqfgKwtL/AEq78dmS+WJhHCUZXVsA7SRnHfjpXz1qnivxD4p8RRXPh7SppZZLmK3sbWyhyWk4WONERQSScAALkkjqTXsXw2/Y/wD2mfioker674MFkt95kiX3ia5WGSMICMPb5addzLgExkEMrZCndWjwUm/cQlU51Zo5nwV4gSy8SW9/ZIf3W4SvgsqZGQSQcdRXrifGGwgRDvijkHU8Dn19q1PC/wDwTU8Saxp6v8Qf2gPDvhlpikkUVlp5uU8hsKJHMkkDAhsgqFOAMkjOK63w3/wTr+Ar6DeaLf8A7T2ranrexks9Q0+xgtLa2dlO2V4JGdpI04ZiJkBCtgrjI0/s6s0r6FwbTskeO+NPjBZxrNFqGpMkd6gXbC6O/bnrjt+Ga5LRPiXpqairJdPhXypEuGx/jXY/HT/gmD8c/h5o58Z/C7xNa+OrBbdZLqK1t/s16nyyMxjhMkizINqqAkhlZ32iI4zXzNfS6zomq3GieIbK5sryzneC7triFklglRirI6NgqykEFTyCCKawjgjGq5c3vKx9bpqfhfx7aHWNC126sLqPZHcWd3+9tpTg7flOSrY3gOhQjcfWv18/4Jnf8F8Pih8L7HSfhj+2JrV7428KXNzaQ2Xju5ujLq2iw/ZfnaYBGbVYmc28m4sLiPzbgb7oiGIfz1+HfFfibTSk2ja8TFld6SZwwBBwQOccA49q9nn/AGsF8MaDZeHNCSSfyrNo99xcblgJGB8nsCevHC8YAAwXtaE7w1Kap1I+8rH9cGlftN+Hv2gPAFh43+F+uW1/4f1iHztP1O0dsyx5KlSCFaNwQVeNgHRlZGAZSBQVM8/rX8x/7JH/AAV2+P8A+yh46tfGXwgu4WM8Ah8SaNqM7Pp2tDaoWSa3TYqzL5aBZl2yqo2B9jMp/oL/AGFf23/hX+3b8Grf4l+Bdum6vapHH4q8JT3ay3Oi3LA4RmAAlhfaxinUBZArDCukkafoOR5rgsTTVGEeSfbv3afX03R8PnGBxdGp7WcuePR9vJrp69T2hV9BUirjgUqqccU9VxwBXvniCKuOTTlXPWlVMcmnquetS5FJHh//AAU0H/Gtv9oPHb4H+LP/AEz3VFP/AOCmy/8AGtr9oTA/5of4s/8ATPdUV8pn7vWp+j/M+oyH+DP1X5H135Yc8nBz1oaGRJBErZz0qSJwOTVqC3jklFxu6dq89ux6q1Izod55PnKy7e+eKhkt57ZwDyp/iA4raR2kTyi3BqW6tYE09nZA2FO7jv61l7Rp6l8qOE+JXw50b4o+GTouqQwtc2zSz6VNdG4MMNy1vLAGljgmhaeIpNIrw+YokR2UkZyPwQ/av/Y7+P3we+P2o+CNBi+LOv8Aia8tbe++Ml74U8eXPiG0mS+026bW/D9natZ31y0WoR2umiB9Q+1XCQ2dpdahDHFtlX+g6Finykc9xVfXtR8G+FbG5+JXjK70zTrbQ9LupLvXtSeOJLCywstwzzPgRQ4hR3JIX9yrN90EZ1qXNqnYhx5j+fv/AIK9+M/iP8O/hN8E/wDgn54q1HX49b+H+nXniHxqureOxrN3qHifUbyebzb2SKVzI8ULy3RuZHhM0eqqwtbRZPs5/PzXvGfiPQ9Ua7u9RRW8tvLdyACSxLNk9+QMewr0j9qj9sDxP+1D8ffFP7VHjhr6G48bavdXenadqt1HcyaPZliIdPSRYoyywgLAHKqXjhiyAVAHyt8UviJHqLy/aZV+zCT5EUcsf5mvAknXrNrY9anGFKktTrPiF8at6rDLfRu5AA+cbSfb1/CvavgP/wAEsPGHijT5fiv+07rkngiwuJUW10iKSP8AtO8EkW4OwO4WmHdBtaNpCUkVliOxm5v/AIJj/BfQoNUvP2y/jLpsB0jQ7lLXwbBq/Cvf7xm8iZyFbyNrKnysPMZmDJJAueg/aW/bnTWfFV4+nSyXkcsjFJrrdH1ZnLKpJIUlsbDj7mcDdgdSjRwy97V9jtw+FliIqc3ZdD04T/s2/s32r2PwR8AW321oFE+sXUrPdSsVXeC8hMgjPlh/LVwhIB2rk1wmu/tH+NPFOlXGni7S3geVpTFbARiPcXwMc7uctyTjqOnHz0/7Rk2pams+sXClg/yTHqvtn6DH0+td/wCH/DGueObM6h4X0e5v1miBVoIMgDIAJx2z0/H3xzVcxxadoRsezQwGCcd72M/xx+0Ld6HqbNqN9cPdIzBot5cEEKNoLdF4JxnHTnjNec6r+1l4ujJtNNXykXdsAmkKo28uH2FiAQ3zDOcHBGK5r44+GfGHhjxFPaa5ZSwhCQY3U5j5IweOORXnZkZiSTXXh41akOacjysfioUanJCNj2Pw3+2P8XNBuo5dO1ZlmSLYkkOVcMM+WwZSCChZgpBGA2M44rv/ABB8Z/h1+0j4QtvDH7RnhC9tdZtrQwaF45s7bfPaoZSY0k2v+/iDM/7thkZYqwZia+YoZJ7VVmQAA9Pm5PX0Oe1dh4Y+IfiPwx9kvr/Nxp8u5hZO7FNgJRlXdnByCcZIO4jIPFazjUjrE5aNenUvGp+WhieLvDfiL4aeLLzwpqxUXFjOUMkYPlzLn5ZELAFkYYZTgZBB4qudZGoOn2qNVZf40yDj0PXjPtx+dfR2rfDPTf2mvhQ914TsbU+I9PIk0e5knw00XG6zaT7uDu3L5gBV+jKjPj5dBwc04OFWN+pz4qhPDVLbxeqO38I6bBJOL27vGjYMDHEG5Xn+I4GfyAr7G/4J5f8ABRDxb+xd8fNK+Kvg+4sLwQMbHxFpOp3Rhj1PTJGUywgqCUfKI8b8hJI0Zg6Bkf4U0vUZkhaEXzwkD5XXn+f9MVv+BtQktb5Y2t95dgJmlG4uM/dPt/gKxaqUaqqwdpR1RhKNOtSdOaunuf2PfA74w+B/2hfhD4d+Nnw11EXOieJtKivrFjLG7xBx80MvlO6rNG+6KRAx2SRupOVNdaExwBX4df8ABGD/AIKLeOfg/wDAXxD+y1qvizVX0rT4b7xToV/pyQz6lpOlQWc1xqdra/a2miEi+ULmBPsk0Zk+1CfyYpXvLT9n/hf+2F8L/iF4I8F/En49ahqXg698UnSNAk8LWtvZalpj6tq5E2mSRX9ilw1xE8KhYNQSaOxlW4ZXWO4DQW/2NPibDSpU+Zate90s9n66nx8slqKtOHNa21+qOoCetWrDTb3UrgWtlbNLIeiIK9G074PeHrSV3vLia5Ut8iMdm1ffb1Pvx9KvweHdM8NalJf6ZZhTM3zKAMIOOB6DrXTUzrDu6ppt9OiCnk1e6dVpL72fKH/BSzwHrkv/AATR/aRur23a2jsvgP4wkbzF5Yrot2cD8uvvxmivRv8Agq7qUEn/AASz/aUQZ3N8AfGQx/3BLyivnsbi6uLqKU1a2x9Bg8LSwlNxg73PV4yepNWIJXBwvOe1QLFkZJqe2UbxWjCO5ctXZWw+cVp28imLyyc59az4wAOBU9v5nmBRn6VhNXNUGo6cZdv2eMYB54r87v8Ag5b/AGxbD9lb/gnjqPws0nVZ7fxL8WJzo+nC0vJIJY9OiaOXUJflQiZGRorV4S6bkvmb5lR0P6Qxhlxu/Cv5cf8Ag6C/buX9qH/goJ4g+GfhnV5bjwv8H93hbTHWa5WH+0YznU38iYKscwu91q0iDEqWEDBmUI1ceJquNLlXXQ1pxTldnwZ8Uf2gvDPirQY/J06S1vrdRHNZKoKKgwoMZGAAcj5eo5GMAMfHYo9d8d+JLPRdPhEl3qF3Hb2NuZVRTJIwVV3MQoySBuJA9SAKqahO97MbydiXeTBAFd1+y3q17o3x20nVdOuUhmhtNQMTyojKp+w3AwQ/y45wc/hzWNOnGjBtHUm61WMX1aR7R+1f8ctC+Hei6d+zn8PZpZrLwpZLYW0H2eKOODHLzP5Y2STyszSO+MlpCTg/KPmDVNd1XVp2u76ZmdjksSf89c1veKobvV/FFxopuzLLiWeS4EWGuZijSE4J6k4UfXOKrR+BtUS0J1bR300yFHjn1OUxnyZCuyQIQGkUDcSyK2R26UUowtzy3OrF1a9SpyQvZaabaGJp8N1qN/BYQBmeaVURVGSSTiv2+/4J5/s46f4L/Zp0PTNQ0lpNRQGS9dt3Mr/MEORwFHl/KMHhuc1+Zf7CX7NcXjn4tWPiDxCv2iy0rN3PCYWCMEbAwSOQSU5IGMnjoa/Z+x8f6Z8DvC1h4Nv7RY51sN940WMCVjuYEjI6g846KBkZqqtSnR9+TPQyjDVZqV1dv9Dwf9sb9iXwd8XraaG906O3vWXCSJEpDLzgFxjqcAEdyO+c/l78eP2G/iL8KdYmSGwc2qSEec4OzqMc9eQcj1wcZwSP2O1/9qj4RC1efxJq1qIT/CJMEAAZOQM8k4yOm3jPWuD+IelfD3xf4Xbxf4du4ta0g2+8XtoA0ignPzAt0B4PQjJPqaVLF4evdxep047KajfvKx+QmgfCfxrpEDND4Etr4u8clvd3YLm3ZDv3KuQsikdVkV1II4zXqXwuh+KS3X2W5E0dnc3DNc6dYobazUsEDYgi2RodqRg4UfKmOO315rf7M/hTUpU8Q+FQYXYLKsunT7A2GBJI+bGSCc88g9MA1BpHh238PsIdRljkJJRoJ0JkiVRnClwODyOwJx3xjDE1V9mTRWBwE4O3LqcN8Hf2ePCmmEXPg24SC9m+e+tFi/dkEZyo5xn5geCDt4AOa+Yf+Cif7OOrfAb44Saytj5ej+K/MvdOl84NunXb9pB5JB3uJOgUecFXOw4/SvwDL4bsLqOTTNItVEssjxXEEeWZ/lzz1Ycegx0ODghf2uP2bNE/bB+AN78NLu8gtNdgeO88MXszskcN+kbKnmsCSyOGdGOGwsgYKzIuHRnFTv1ZWYZZWlhbW21X+R+KwOCDWnpN/Jb3UUisQuQCfTBqPxT4b1jwjrtx4e1/SrixvLWVorq0u4jHLDKrFXR1OCrK6spB5BFRWSI6EHep/vJz+YrqnaULnyUb3sfR/wCzN8R7rwb440rXrOS2aW1uFmtxf2UV1BIQRvSSCdHimiZSVeKRWjdSyurKxU/0AfBv40eFf2ufhBpXiPxt8ePA/hubwp4p8Lz2Pibwp4qkXVvD/gy4s7A2uiyzXltd3V9LBcrDqGof2nFdaY7SOr3BaCabTf5qvAviQpeJGW2eVjcAQpIH8POCcj0BFftp/wAG2mr/AAF8V/GK08A/E/w3Lf6h4guWn8LWUHieOSyu7vTLaaeWXVNKaYmVUS4hezmeAxpNbzNE6yrK1ea041FHo9Pv/wCDYjEK8U/l/XzP331PUxYRZKfMxwMmsU35lcs7knPVjS6t5XmHAVckF9qgdAB+PAA+gqqpjdflIBFfSU6ajE5ZzbkeH/8ABVOQH/gl/wDtIgd/gH4x/wDTJd0VX/4Kmxzzf8Ewf2kXjQ7V+AnjDcf+4Ld0VhiFaSNaTuj3NJwOAamjnXg5rnl1Z9/3ulSp4giEu1zjjnAr0pUJHCq0e51EU4wCXqv4m+IHhH4a+ENZ+IXjbXbaw0jQNOnvtXv7qdUjtLeGMyySOzEBFVAWJJAA5PFfGX7dn/BTzw58FvgXPr3wK+KHwzHirVtCki0rQPGXjQ6T4gstUuI4RYwppEtnLJJPvuY/Niu/sq22FadghkMf59/G3/guvJ+03/wSr+Inw38V31jq3xF8ReJreGG2up5tFmttO86S7lmtYLeVmuEtJLNLcKkifu5lM/2gwTyXfm16sIXitXa5r7eKP0i/aM/4L6/8E+fgT8HdX+I2h/EhvFWvWpEGi+CLOzntL7Up3ggnhfM8QENo8NzFN9rIZDHvEYmlQw1/LR+378WdJ+Pv7VHxM+O/h6xe00/x18Rdb8QWtjPMGe3jvL6a5WNsgZIEoBOBkjoOlbfjXx544i0xfA+uaolvaaM9xHHZKUSOOdnVJnby1CSyMY0DynLMscW8sEXHk/xRkNrbW119njLmP97k7gGIB+96enNeMqtarUvK1kbYSrOq3zHm0yotwTtIXdk816R+x5po1n9ovQtMCKyzw6grB2IG37DcZzj2zx375rzeWWW4kPyDJ7D0HOK739k7VNX0f9pjwJLot2YJbvxTZ2EjiFXzDcyrbzJhgR80Urr6jdkEHBHdJN02vI76ElHEQfmvzPaPA3wm1rw0mu+MtM8u1uZ9QktNPvNoSWGELsfYwG5RIjvG4B+ZQVPDYq18Pf2UItTuV8VanbveRJPmKER7d7ZIHHPy5A+Ygg9AM5x9d6j8NfCFlfLHr1tJNa2ZG23hYojPknk53Hdj1zkk880+3A13UbTSobeWy0+J9lvYgkgqM4ZiT85AxySeOfevIdZxnq/Rf5n3UcvbpLTQv/s0eANH+D0EfiDUpWDJuvdVmAwkMEX70hflA28bdwGcucAZAHzL8cv2/wDxp8UPGOqalBqkqxTXb+TGkpVQgLAYAwMYOMnsevr7f+0f4203R/gr8QG0i+IudP0aGC1YMcMZpPnyf+2QwCe3FfmHouo6jqfiKOeaeTEjlQATtXjA49jirdP66m5vRf1+hz4jFSypwp0o+9L8v6Z7D4y/aB8W+I7WTT3v5fMHy7GJJHtn86pfAX9t34rfAPxcl94f1q8OnmbbeabcTZjmXPdT0P547GuN/s7VLbU/9LhO932gN8nYjpyaSP4R614iu5brTmhkdsssbSbQwBweT6VdCnhqa5bfccGIr5lVqKcZa32ex+h+g/tCeAh4Zsfin4A1K3g8P69eG31DQG4bTrt1ZyIgc4hYK4K8bS3B2kBO0m1/wx8S7qLU9IWG2FwCJ2tUKeYTySFIOG445Ir4s/Z6+BvxdvfCupeEdX+06Tpr7H8sTq4lkBypOwkYU8kE5O32yO/8M+KPiD8GNTTwz4wjIjYbba8gb5CeSD6E8nr7jvmuSvUdOVnqj6TBL2kFJqz/AK/pH1LpXhe/0p2aC7WeRj8sQcKysoLYB4wTwcZ4753A1uab4yez3zJaGBmdVEqQlVxlm2gkY5A6AEY4ya8fsfifLrGlWtybuNmYh3+XnjoB0+UHPJ/PjjQHja0n8ueYSLK5cSlpCVIYKBjGPlyCTnuB0xkxCvDodNWE1G0tT5Z/4Ky/Cqz0f4raf8aNFtRDbeLbYvdRArkXcQWOQ4UcKQInJYktJK7Z5Ar5Ps5Hifej4I7Zr9B/25PCM/xD/Z7MsOmLLcaVqRmSVWCMkcoC4+cnO6YW4YD+7nODmvzzUOZAIwdxPyhfWvXwtT2tNrt+p+d5rQWGx8ktnr9//BNLS4ZL/VUhtxI8sjqqRj5mZs4AHr2r98P+DcLxp8Of2XdXfUvirr3iay1C+ubHR9KGvavFp+m3EOr6Zd3jT2tnLEXupXuvD1taRGGb/SRcwN5e+MLX4p/Afw1N4c1mPxrq0ltBcWhV9PhurfzMPuH70qflO3IOHyDuBIIr3v4U/EjXfBOopL4U1o2l9cXFvLDqRuXgniZbhZ1lhkUbo3EsELB0KnPIZSAy8WLxDpV4zir8r2PEr1rvlR/WJpH7TXwt8WWAnVb7Swur2dnd/wDCRxR6Y1rFfbl029KXTxtLb3soigt2hEjvPN5DIksNykHcLYKTnJxX8qP7Pv8AwVx+Nf7N3xI8R6Z4t13Udf8ADWr+Kr3WrhNP8SXelarfasyXKRXd7qdp9l1K7ti97c3BtTcxKZZC5Easyyf0w/smftE+Cv2pPgbof7Rnw98ZNqmi+OYm1HSbdpoHTTkj22s1rGYo0J2TwyGTe0rLNJKokMYjVfcwOMliVZqztcxbT1Zgf8FTJkh/4JbftJwheD8AvGIHt/xJLuiqH/BVC4B/4JhftIID1+AvjDn1/wCJLd0VriI8skdFF3iehTJIjlGUgg847V8Mf8Fk/wBpr4caZ8Mk/ZL8Q/GMeFrDx7cXGkeLPEeiaxCl7pKrYPcQWbeZPDDAbm8l0eCVLuaGKWxv7os8MKy3UH6Iz6NGjZa3/wB4etfg9/wXY+LHj34Z/tbeKfCukfCvxXpF1qXhvTZpvEQ8b3erjT/CY1fUbaee70mKSS2kjur2+lWKO7lkhS0uLa3W3tZ5yqeljcVGOGfno/6X/A9TxZUZRe58e/t//tvfE39q7xR4g174pfEie70S2cyxaPpmswWNpfa+rmKOaSCxWe01CezhdrJb4iKSeysbdzLH5kMR+cPGOveO/i944v8AxRf6Xf6lqt7De6pfwJbXF1dzKlqbqe+lO13ZmRHneZ9xxG8sjYy55Xxf4v8AEfiXUDr/AIn1m/1C+MMcLXl9etJI8KRJHFHukLZREjRFHHCgAYQBct724n08W85V1ileaHzYkaTJUKT821nX5AME7QenLmvnJN1ZNvqdEYWSN/VrybxBdf2hBDa2YubjyRZRIIgW8sL5uGb5d23c3IQFj8qooC8x46EM2mpAJVWJJAIQnO4HcSfXv05x6mu/8GfAb44fEXwzf+KvAnwc1fWdF065WHXfENtb+dY6RuwiG8u1IhslOSfMnaNCAzE4Ukczqen2M3h66iuLOS0u4JGE8E0e1lZT8ylcfKAePz4AArOUZxabVjrwrUalmeWW8DrdyRopz5Z25HOeK7f9lQLb/tXfDVGLbV+IGilgp5/4/Yf1rlBKlvcTLbxq8kigRHHfP3QM85zyfQVofDTxMvwr+LXhj4i6hbyXcOh+IrPUZIomCvMsE8crKpOQCdpAJ71um2n6Hp0mozi3smvzR+v/AMVJbUXh+yyBvOlz8nO3A5I9DgAZ96wdQsoPCfh2TV+ktspME8hBypAG5cgYyfxw3pUes+J5kvYYbuCViz7k3P8AIuB0wSOOPbv1rnfjB4nX+w5FhjkUNGzlgwAxjI7cHA4I7Y6Yr5r2qs31P1qMHPlXQ+c/HWq+I/H3xJv/AAr4fjEyahps0N2SchYsq4Gc/wB9UP6e9eZ+Gf2fpfBss+s+NJbX7S6hNO061lDlctwzZI5ODgdjgkgZr2n4W2EegLqfjPXJ9k1+zrDJLxlQjO3zDO3JBHPUgd8Vi+JdL1Lxfrp1DUr+3t7Rrh2Z4eUwEyMA8NnAyMfeUnGeDrSrclK/c4sdh4Va6S+L8kePeOPD37yGaCIAsPmM2FIUk4bPcY5yQMfiK6rwfp41mDfounWU8iZiuF8p1c8E4G3GCdnGMksSD1AHQ+LdR+CsljNpmo32oS3ESbY7mzaPYBt4BBzleSMcHgenPHyfGPQPA2kJ4f8ACeiW8dtJA7yXN8qyTSl1wQeoCjPAXGR19aqPtZJWRjPARozbnJWPRfC/i3xZ4FIj02+hjnjYJJALhnVvfc21o+qHG05HbJ47/T/ij4Q8Z6DdWfinTFuIo1zII7Rw55A3ICMk5YYYMDnue3yfffHfxZp6BH1K3Ry2W3xK7tkjgsQWP1z0PWnaT8e3ILeIJriHCtma0kwJCezKeAM+x+neul0ak4+8rnDLF0sNK1OfyZ9RJpVl4VuXuNO1OSezTaCzoCyAH5gcfKRuDLngZx0yK7LQLCw1OBNs48qQlpAG9UZidxC5xt6DOWIwOmPkTwx+0XpupSHQbjWZYg6GODzPu78na2cEqfmxkHgZ7/e9z+CHxgjhuLbw3qOqPIJbbbBcvDtQzADOCQpVT82NxzlucdDwzwqpS2t6nTSzOOIVr/NHpHjzT7XxT8P7/wAIW1v5ovomSBJZSirKiho9zg4G2QI3XBO7qC2PzZ13S49C8cXGkTxSW0MWo4UK2HSIuCpBPfbgg1+kOt6xHp7RyXVwm1I8OIt21CCMZ45zt64/ix2xXwp+014MvLf45+JmtYII7Zb1DGkIIREa3ikCLhcfKrqMDp6dK9LAtqbXRo+cz+kpKFRb6p/mjpNJmluLuSWSWWKQpGixzBnO8HJB3EALhXIxkgRhT1JrpfC/iebw1BJdXD2kkyxyxtb3FpBLENyeW2VdHVsDfhwNyNtkRht3V5vqPxPnsRHaabYjzpV3yRWaAbcDrxznGffHPc7ufutQ8R37fbb27isY8qVjzl2HX5VHpgcHbjKjNW8PCo7z/r8z5RYWlZOUvkj07U7/AEG81q48Rw61HEUMk8dtA5jl+1IJDExLLsb5iFJPIV2K84x9Ef8ABJ//AIKaftD/APBPX4k6xefAjTvDWrReINLhsdW0rxXe3ctlPDDK00ciLbXKLHLHvlCkLJsFzNlTlsfCtzHJFei302d76R+mYzuIH+6Tnvnr0rufD41CzW20vTbeNp0KFvJBBl5w65Uh/vSRkAHnf93CA05QlSjem7NaryCvSpwilE/bD9tz/g46tfiz+yt8U/g/ffs9LZ6b8Qfhn4h0GxZdWHn6bcXWk/ZsNJytyIpmmkJEcJkjuIl2xtbs1yV+SeoeLIo/hDqlnqVxaWySeH72Cw02N2aXJTdvfEmcfPlSw6HHzBc0Vvg8TXxEZe1d2nuZ4ZNKV+5/Xf8AtleFdL8Wfst+PrfVfhlF42Fr4Q1K7t/B91pMuoxa1NHaStHatZxOjXZdgAsQOTJsZSHVGH4Ef8FcNH8NaYdZns/Aymx+GPh7wN4F0PXvFN28Wp6XcXehyx/ZRpV1Y7rbTpLGwvJ1SeKCWK+/0m2+zyvdwS/tT/wUz/bx0b/gnn8HoPjJpGlaXr3i7WNSgs9G8I6343g0yDUYIv8ASL0x/arhFRxbRSojwxTSGea3QxsJDj8Bv2tf2r7H9p/4SeLdV+CfxC+LD+HtO8PrqvjP/hZOp6VBZvqWp61aTTWUJ0rT41v4vtU15dgzG3eWaSS4W2V4ZTL6WMkubk62OSTjLY+IJdD1/wAS3UmnnV7S4fSwYZy14HjgTzWjzvIKLGZJB84bZ+9BLLyaitE1zVov7V1vUb27060e2Wa0mnlCXCoDEIVdlKhkQyBTglASVGen1n8H/hf+yZ4a/ZO8TfGv48z6zbfElNN1fTPDngF/BV1dxTyTxfZ7XWrkyNaRQQWrS3ERmjnkYXM1qTZN9kMd94/4m+HEPgrRbLx3rPwq8XwaXFoqpYeI54bvT7aXUpdTvYIbiJiio0scVneIsImSMXOmzM0kggltn87mlG1tPvYReux6t+z5/wAFKPGv7P37JPjL9mb4O+FrWOz8c6Ve6Trmr3d7Ls+xz/a0nIhhiRklWKVPJdpncrJOlz9rjSwisPnjxysx8ea/b6xe+cJr6VrW2lUEReaP3u/akSi4BREkbylDHLjAClpbe7QWFzqlvetbXU0qi50z7M0CXEXnSuJUMUflfZ43gQEDZj5QiAIWXp/iD8NfhAvxH1LRvCfiK6+wxajm/g0ww6/dThUuDLNZSRP5FxZQPCQZGnjMqTQzBWG6OKoOtWclJ6W0/r0L5uR3PEpdDey8Trrt74cbVdOlUp5GlXXlzx8gAoWRgW/4C4ILfdPK4fjU+Frm0gvfDeuvdL5hUw3NqYZ4xgcuoLJgnONrtwPm2kgV79rfwJ+I/wAObGz8QeKvB15pGnXekWOoafd3sgQXlndPL5E9vx+9VpYJ490YOySJ0YrJGy15l8S9B0bXNMutRsIU+1RqksTttEjYCh1JVR5mVKkA8g5wAA5rnjJe3T1X5fd+qt5nRTxrl7slv1Prj9lX4nv8SfgloMs+oGS5s7aKwvIpL5ZpDLFlNzsMEF1CvtYEgMOWHJ7f4l2/laMZ7u5CoLcSPkc4bAXvzzx+BxzXy3/wTg8ZOuuax8P5bwBZGivrWAIc/eEcr7gCOP3AwTkZyB97H0l8d/EMc/h2G4aWWFrmQeW5hIwFBOSBjDAZbB/HvXh42j7LFyj0b/PU/WcpxzrZbGd9UrP1Wn6JnkXjbxjCIITHKGsVgC3fmMNsJJkDAYAwduCehG8dcmvJPFHxc1vxlqieF/CK3d0ANttZ2sZkkmKhm3kICW7nHOACeuTWb8Y/EOp+PviWvgXwteJbWEcSJLJHvZdiqBvbJO4gADggZ4AUcDr/AABZeGvhpavbWt0EaYo17M0TNJMgGPmJI4yM7R8o5OM4NejSo0aaUqj9EcFGpisZWn7N2SdnJ/kvT7jLsPgV8evHE8kUfhePT42DAzXN4jRuc7do8rdyTwOMHp1wDv6J+xxLHs/4TbxhIxgUrNbWkCx7WPXDOTuUN32rkc/LgitHWP2obrQbOS2sri5O+TMojtxhx2JOCOuD16gHmvOfEH7UHie8naOO3kj2AnzJZcnsM/lgfhXXGpTt7kTuq0sqoK+Kr8z7f8BHt1h8J/2c/AaLfXOlW7y+YzoNwnkJwDjfLuKcBcDj7wJByxrB8W/EPwjc6aNOgsolURkLHGCRjcDgkjB6gHgA8ZzXz9d/FDxNq9/svdamaNyS6xttzzj8eOfrWzpuqiZk8ixlXagYySgZ3dxzzz7+1OeIrQXY8+eMyyb5cPT/AARsa18KtH8WI9xpGnQ6a+7NvKhwS4Gecevvgnik+H174o0PxLaaDrLyCW0mKqzuRtJORg98k9+5z1xXT+CIZdVdZ53Yox2sgYdOeTniuo8ReD5JZ01eOLDIgZZgCMeuCBkY/wAK8qri23yydxfUov8AexVmemXPiu71TTws7KGkVZjiRVkM2V529t3J9CSe+RXiv7XItlu7DWLi6tI11HT9jISVkadGbc5J+8CjxAE8jYQcDFbC+J5LGCK1dQ3lSKAXdiDuPLA9BnOOhzn8Bw37WQttU8GaRq0c3z2WoGDYiAKRLGWyOOxi+nzH0FdeDfvx89Dz81SlhpeVmeY251i6DT6Dei3SXkSG4MeW2ZIBHfoCAfQdxVi38JWy3i6hrWtG9IlVpYXJVJBlfvyBidpzt4weeCKreGYjFpCxlW4u3PI9UT/CuktYX/sxr42rjM5WOdlLLK6L9zJHBAkXOOg2nHevTrRlGHMvTY+MrSnHVGj4WuLXQbOeLQrI2aTL808I2NlT8mS3LYzu6kemSBTbuynh33Zvyk0EgNpEWYjPKnczDYoOWViSu1nBGcECKxjeaC5ktYJTAqpvhgzlgxCAYIJzwrAE44PPY1YNF1Vc6hpNwSptSTaLOMqDhQc8LzlnAGfmXBGciuBJxm5X+85Y3bepoHx14d0rwlrEmnaA8uoahptzbC9abawiljZS7BTgPtDKy45556glYPiXVdGii1HTrZTIt3G89sWiaJkYxHehTcygc+YAoHMjDdwRRXbhoKKbS3OukrJn6n/Fz/gqN8Q/24P2aLz9lv41/HjX9P0XUJFedTb218tzIJmnRrk3EbTzRiVkcIJl2GGMIUVdp8t1D9lvXviJ8NtfXS/iLN4u1G7s9P1PTIrO4s2fXbqNxNfzalc3zGaO6SDzlswgmQp58QVZb2SO4/OrR/iV4nsZVnbVpoY1GCyty3fA/wAe1em/Dz9rfxj4Wvo207X/ACdnCnGzAA46f55q3Wm01UXzX+WxhUwet4M/Tv8A4JfeFf2gvjTNpehfGX4SeDdR8O/s7RXPxb1m6vIIj/aM6wWNrb6NNqMMjf2U8drp26G0ZoYWNkFuLaSO1Xb8+/tcftf/ABW+G13F+zZ4G1zRLR/Ba6Xp02m+Hvh/osGkxa5pd3cNba3p6/YludMv54vs010u5b2Sdp4JmEcENnFF+yr/AMFd/FnwG+IX/CzvCOtJpPiE6dLYvrkFrBNJPbTACSKQSI6ypuSNxG6su+KNsZRSPUPjF+1b46/ay+P8/wC0P8Lf2jvEfgGbWbB4da0fwP4+1jTVS9YzTQXyzSXF2VSG5NncfY1SOP8A0MRxtBlXizm06S5Ja36b29P+H9TH2dSErNWPjDw74i8c+Jfid4e0Pwb4r19dX0YLZ+A4/DOoi8urCZLiRrNdO+yeWkbtcOG8yD5jO8twFkZih19Y16+8EWd78NPj18NrOSw8Zx6brWp63qs0lzq2kW88EN1BqNnbw3tit+7afe2zxRagJELGRo5Yd1yw+gf2b/2FPg3498TfEbxh4z+E3i7R/A+m+C9Rh8H+C9L8RaV4n8ZS6wtvYxpewWVs9jJqNrby3b3xMcUEIitZommLoyv4D+1j4E+G2o/tP+Pbvwb4p0jVfA+l6vJF4U1LQ9W8+TULK8iabTbou32i4knZXa5vLeYB4ZIp7VngkKRxujzy9+/X+rqy/wCGFNpS8jF+Pn7TnxD/AGr/AIsTfE/4n6RZ2l5HbeR5GlSXc0dsqSSFUi+33E8u1fM2hPMwqKvA2k1zOl6VoSNNrOr6hBJaBNrWcNwr3JYhtkfEZAVjg5DFV2spIJJql4I0G1hurzw/Lpt1d6tcqItGj0ydSftZliHHlo/2geX5iqilDuZGDMFMb9Enw21P+2bi01fVXhtNPvDYyWcUqmdpcN5sQ8sckYMby8opZfvDg89Vyr1nOTu3v/X6io0oynZfCjlfhZrMfgj9pix8VWd2LXT9b81LtLfgJ52U53t8qibZKCTkKAcdq+qPjcy+KPh+s9q3lXCKzxBYBkE5HbPOCAeRyOg4FfJnx20hvBmuWU76hEYhEWjsYgSLRt+dp4xkqwbOScqw5wCfbfhR8Xk+K3wvg1G5lnEkDS21+rQgBp1RSZPlwBuDq2eAGZhz1rjzCk5KNVdNP8v8j73hzExVOWGk99V+T/Rnm/we8Ci31zVta1GLNyR5SbxkDcdxPPvjg+n0rf8AEdlaGJ5pbRC3mHgD73JJ+nP6ADitvw1bLZaldlTzNcncQG6de4Ht+XSota0l7hGVULM3JXtzz1/KvLlWl7W7Z9TQwkVhLR8zxTxfBfS3srC4CgAhE2fxc8f5z/WuQvdGv5ZyLjczMB8u3B/KvdB8MYfEt8xhIMqPhzJxzgev+eTVjxB8Cryzsorm3lDyj/XRRruYox2ggjtnrwTx+XZDHKm0jy62Uyq3kjxXw74TWYKzRhd4wGY/XJ/Dj867fw14E1G4fyhADtYeYu77p/H8Pyrfg+Ft/wDa57k2Lr9mQqmV/dsx6ncfT0wM5A716L8I/DdvLaFQkTPmQEHDZwm5Vzz1X+LsdoHXNRWxFSpdo2wmXQpO0iDw54Wh0bTY5LeDe6kGRT1A6E9Pw5962dbubN9PKBzt8wiMbd23qMH0+v6V0V9pul6dEL+7s45lgIZhbsFkKlC4CFiAMHaPm4PsTXK/EU+DfCM02rQ6iU0+6cnY8uRv2ncUBxnJPKk9VI4BBHPSoVJPmZ2YmtTpR5dkcJ4ltIRIRGSXU7ImIB6kfme/9K5j4uaTa618J73Vb1HM9ldW0kDg8Fy+xlOc/wAMhJHrz2xWp4y1/Tnn2WE7SptLhkBIK/MODyM/xHuMg+mafiXx/o+qfCK++Hlnosq3V/cJIlxcOFjR1kjfKkMeWSMKVwAflPUZPq0YyhKL8z5jHzp1ac4qS2/pHl2l31pZaTHZXLiOQXLuoK4yhSMA/mrV6t8HtfutJ8OPZavocV7oV/rZgZZkikje5MaMEw2dj7U3IzLhgsm3cEkA8R8VLc288DSSMHCshTGAMN/9evTvgGJr7SdThlf/AEeZbT7UVVC8ZHmbJUBBO5GO4HBAIBIOAK9StJSoa7Xv+J8y4XlY7f4i/Ae78DXVpDdaY9rbzQNJpN1LKHiuVU7mBKsypKmVyhP8StnaQ1cjq0Wq6Ity2k2+/dFvJuICPmbA3IV3cAgDPAOep5NezxfGeDx94DuPg14y0AImnMzC6WVmlgl3bXlhLJny8BX42l0hAyNwFctp1hodp4hPgrxLb2F/JuEdogjaS3nZ0+VF3KTGzBsAKQ2MEbCpNedKKlv0/r8Tkq0I35onj3ivTdRi0++Sa2CGKCV2FpLhd+1hn92ccIWVjyGGccHNFep/EX4CtrfgbVfHHgfW7WZLDQbi6vtHurtfNt4Ui3vJExZvOUnLEYBTKKxZsNRXfheZQ1LpJqOp/9k=;" vertex="1" parent="1">
          <mxGeometry x="685" y="473.2" width="60" height="33.6" as="geometry" />
        </mxCell>
        <mxCell id="akOXsK06G1duExrTISav-18" value="Path Searching (A*)" style="shape=cube;whiteSpace=wrap;html=1;boundedLbl=1;backgroundOutline=1;darkOpacity=0.05;darkOpacity2=0.1;size=10;labelBackgroundColor=none;" vertex="1" parent="1">
          <mxGeometry x="702.5" y="555" width="175" height="30" as="geometry" />
        </mxCell>
        <mxCell id="akOXsK06G1duExrTISav-19" value="Initial Search" style="shape=cube;whiteSpace=wrap;html=1;boundedLbl=1;backgroundOutline=1;darkOpacity=0.05;darkOpacity2=0.1;size=10;labelBackgroundColor=none;" vertex="1" parent="1">
          <mxGeometry x="745" y="645" width="90" height="30" as="geometry" />
        </mxCell>
        <mxCell id="akOXsK06G1duExrTISav-21" style="edgeStyle=orthogonalEdgeStyle;rounded=0;orthogonalLoop=1;jettySize=auto;html=1;entryX=0.228;entryY=1;entryDx=0;entryDy=0;entryPerimeter=0;endArrow=none;endFill=0;startArrow=classic;startFill=1;labelBackgroundColor=none;fontColor=default;" edge="1" parent="1" source="akOXsK06G1duExrTISav-19" target="akOXsK06G1duExrTISav-18">
          <mxGeometry relative="1" as="geometry">
            <Array as="points">
              <mxPoint x="790" y="585" />
            </Array>
          </mxGeometry>
        </mxCell>
        <mxCell id="akOXsK06G1duExrTISav-24" style="edgeStyle=orthogonalEdgeStyle;rounded=0;orthogonalLoop=1;jettySize=auto;html=1;entryX=0.502;entryY=0.983;entryDx=0;entryDy=0;entryPerimeter=0;startArrow=classic;startFill=1;endArrow=none;endFill=0;labelBackgroundColor=none;fontColor=default;" edge="1" parent="1" source="akOXsK06G1duExrTISav-1" target="akOXsK06G1duExrTISav-19">
          <mxGeometry relative="1" as="geometry" />
        </mxCell>
        <mxCell id="akOXsK06G1duExrTISav-26" value="Grid Locations" style="shape=datastore;whiteSpace=wrap;html=1;labelBackgroundColor=none;" vertex="1" parent="1">
          <mxGeometry x="855" y="622.5" width="60" height="75" as="geometry" />
        </mxCell>
        <mxCell id="akOXsK06G1duExrTISav-33" style="edgeStyle=orthogonalEdgeStyle;rounded=0;orthogonalLoop=1;jettySize=auto;html=1;entryX=0.5;entryY=1;entryDx=0;entryDy=0;exitX=0.69;exitY=0.167;exitDx=0;exitDy=0;exitPerimeter=0;labelBackgroundColor=none;fontColor=default;" edge="1" parent="1" source="akOXsK06G1duExrTISav-14" target="akOXsK06G1duExrTISav-32">
          <mxGeometry relative="1" as="geometry">
            <Array as="points">
              <mxPoint x="1090" y="710" />
              <mxPoint x="1170" y="710" />
            </Array>
          </mxGeometry>
        </mxCell>
        <mxCell id="akOXsK06G1duExrTISav-28" value="Obstacle Identification" style="shape=cube;whiteSpace=wrap;html=1;boundedLbl=1;backgroundOutline=1;darkOpacity=0.05;darkOpacity2=0.1;size=10;labelBackgroundColor=none;" vertex="1" parent="1">
          <mxGeometry x="995" y="640" width="110" height="40" as="geometry" />
        </mxCell>
        <mxCell id="akOXsK06G1duExrTISav-29" style="edgeStyle=orthogonalEdgeStyle;rounded=0;orthogonalLoop=1;jettySize=auto;html=1;entryX=0.012;entryY=0.497;entryDx=0;entryDy=0;entryPerimeter=0;labelBackgroundColor=none;fontColor=default;" edge="1" parent="1" source="akOXsK06G1duExrTISav-26" target="akOXsK06G1duExrTISav-28">
          <mxGeometry relative="1" as="geometry" />
        </mxCell>
        <mxCell id="akOXsK06G1duExrTISav-31" style="edgeStyle=orthogonalEdgeStyle;rounded=0;orthogonalLoop=1;jettySize=auto;html=1;entryX=0.5;entryY=0;entryDx=0;entryDy=0;entryPerimeter=0;labelBackgroundColor=none;fontColor=default;" edge="1" parent="1" source="akOXsK06G1duExrTISav-28" target="akOXsK06G1duExrTISav-14">
          <mxGeometry relative="1" as="geometry" />
        </mxCell>
        <mxCell id="akOXsK06G1duExrTISav-32" value="Final Grid Locations" style="shape=datastore;whiteSpace=wrap;html=1;labelBackgroundColor=none;" vertex="1" parent="1">
          <mxGeometry x="1140" y="622.5" width="60" height="75" as="geometry" />
        </mxCell>
        <mxCell id="akOXsK06G1duExrTISav-36" value="" style="endArrow=none;dashed=1;html=1;dashPattern=1 3;strokeWidth=2;rounded=0;exitX=1;exitY=0.5;exitDx=0;exitDy=0;entryX=0;entryY=0.5;entryDx=0;entryDy=0;labelBackgroundColor=none;fontColor=default;" edge="1" parent="1" source="akOXsK06G1duExrTISav-16" target="akOXsK06G1duExrTISav-15">
          <mxGeometry width="50" height="50" relative="1" as="geometry">
            <mxPoint x="810" y="665" as="sourcePoint" />
            <mxPoint x="860" y="615" as="targetPoint" />
          </mxGeometry>
        </mxCell>
        <mxCell id="akOXsK06G1duExrTISav-37" value="" style="whiteSpace=wrap;html=1;shape=mxgraph.basic.cloud_callout;labelBackgroundColor=none;" vertex="1" parent="1">
          <mxGeometry x="725" y="385" width="110" height="100" as="geometry" />
        </mxCell>
        <mxCell id="akOXsK06G1duExrTISav-40" value="&#xa;&lt;span style=&quot;color: rgb(240, 240, 240); font-family: Helvetica; font-size: 12px; font-style: normal; font-variant-ligatures: normal; font-variant-caps: normal; font-weight: 400; letter-spacing: normal; orphans: 2; text-align: center; text-indent: 0px; text-transform: none; widows: 2; word-spacing: 0px; -webkit-text-stroke-width: 0px; background-color: rgb(27, 29, 30); text-decoration-thickness: initial; text-decoration-style: initial; text-decoration-color: initial; float: none; display: inline !important;&quot;&gt;Man. 200 meters. Front&lt;/span&gt;&#xa;&#xa;" style="text;html=1;strokeColor=none;fillColor=none;align=center;verticalAlign=middle;whiteSpace=wrap;rounded=0;labelBackgroundColor=none;" vertex="1" parent="1">
          <mxGeometry x="750" y="415" width="60" height="30" as="geometry" />
        </mxCell>
      </root>
    </mxGraphModel>
  </diagram>
</mxfile>
